<svg id="Capa_1" data-name="Capa 1" xmlns="http://www.w3.org/2000/svg" viewBox="0 0 1681 3264"><defs><style>.cls-1{fill:#8865be;}.cls-2{fill:#6137a9;}.cls-3{fill:#e08aa7;}.cls-4{fill:#d4608c;}.cls-5{fill:#c72573;}.cls-6{fill:#80bbd7;}.cls-7{fill:#37a1cd;}.cls-8{fill:#1d8ec6;}.cls-9{fill:#fff;}.cls-10{fill:#1f1713;}.cls-11,.cls-13{fill:none;stroke-linecap:round;stroke-linejoin:round;stroke-width:3px;}.cls-11{stroke:#1d8ec6;}.cls-12{fill:#390094;}.cls-13{stroke:#390094;}.cls-14{fill:#c4e8a0;}.cls-15{fill:#aadc78;}.cls-16{fill:#94d357;}</style></defs><title>background 01</title><rect class="cls-1" x="169.21" y="2167.38" width="185.15" height="185.15" rx="8.5" ry="8.5" transform="translate(815.64 53.33) rotate(20.7)"/><path class="cls-2" d="M346.62,2296.56s-8.59-12-11.9-10c-4.94,3,5,21.55-.57,23.18-5.14,1.52-11-16.18-16-14.26-4,1.51-1.76,15.63-6,15.9-5.09.32-8.84-16.71-13.7-15.13s-2.17,19.78-7.41,19.6c-6.78-.23-7-23.34-13.81-23.39-4.95,0-9.59,15.66-14.18,13.81s-.63-18.36-5.57-19.53-12.32,13.47-16.75,11.1c-4.67-2.5-.07-18.8-5.06-20.59-5.38-1.92-16.29,12.2-21,9s.52-20-4.63-22.66c-4.13-2.11-15.4,7-18.24,3.32-3-3.83,7.22-15.69,3.7-19s-18,4.54-19.9,0,12.94-13.13,10.35-17.5c-1.54-2.59-12.05.4-12.05.4L156,2278.06l-9.32,24.67a11.91,11.91,0,0,0,6.92,15.31l151,57a11.92,11.92,0,0,0,15.32-6.91l9.32-24.68,17.35-45.92Z"/><rect class="cls-1" x="151.37" y="156.38" width="100.17" height="100.17" rx="8.5" ry="8.5" transform="translate(482.18 140.05) rotate(120.99)"/><path class="cls-2" d="M173.78,248.08s7.22-3.41,6.46-5.36c-1.14-2.93-12,.57-12.29-2.55-.31-2.88,9.68-4.29,9.14-7.15-.42-2.26-8.15-2.45-7.88-4.73.32-2.74,9.75-3.1,9.38-5.83s-10.33-3.07-9.72-5.84c.78-3.59,13.1-1.48,13.79-5.1.49-2.63-7.41-6.61-6-8.88s9.84,1.44,10.94-1.08-6-7.85-4.29-10,10,1.78,11.44-.71c1.55-2.68-4.91-9.85-2.75-12.05s10.62,2.21,12.51-.28c1.52-2-2.22-8.87,0-10s7.65,5.36,9.77,3.81-.69-10,1.94-10.59,5.74,8.16,8.32,7.2c1.53-.57.95-6.45.95-6.45l-23.45-14.09-12.23-7.34a6.45,6.45,0,0,0-8.82,2.2L136.05,218.1a6.45,6.45,0,0,0,2.2,8.82l12.23,7.35L173.25,248Z"/><rect class="cls-3" x="1224.03" y="1922.11" width="80.11" height="80.11" rx="8.5" ry="8.5" transform="translate(2900.9 298.18) rotate(77.32)"/><path class="cls-4" d="M1271.06,2001.54s2.29-6,.77-6.68c-2.27-1.06-6.6,6.94-8.51,5.32s3.22-7.83,1.34-9.19c-1.49-1.07-6.07,3.09-7.18,1.62-1.33-1.77,3.93-7.17,2.21-8.55s-7.67,3.92-8.85,2c-1.53-2.51,6.76-8.1,5.17-10.57-1.17-1.79-8,.27-8.37-1.83s6.49-4.6,5.73-6.66-7.8-1.25-8-3.41,6.78-4.5,6.24-6.73c-.59-2.4-8.29-3-8.26-5.45s7.37-4.59,7.09-7.07c-.22-2-6.19-3.91-5.54-5.8s7.39-1.13,7.75-3.19-5.92-5.42-4.72-7.21,7.83,1.55,8.79-.42c.57-1.18-3-4.26-3-4.26l-21.35,4.8-11.13,2.51a5.15,5.15,0,0,0-3.89,6.14l15.33,68.13a5.16,5.16,0,0,0,6.15,3.89l11.13-2.51,20.73-4.66Z"/><path class="cls-5" d="M1217.34,1936.9l15.33,68.13a5.16,5.16,0,0,0,6.15,3.89l20.72-4.67.39-.21s2.29-6,.77-6.67c-2.27-1.06-6.6,6.93-8.52,5.31s3.23-7.83,1.35-9.18c-1.5-1.07-6.07,3.08-7.18,1.61-1.33-1.76,3.93-7.17,2.21-8.55s-7.67,3.93-8.85,2c-1.53-2.51,6.76-8.09,5.16-10.56-1.16-1.8-7.94.26-8.36-1.84s6.48-4.59,5.73-6.66-7.8-1.24-8-3.41,6.78-4.5,6.23-6.73c-.58-2.4-8.28-3-8.25-5.45s7.36-4.58,7.09-7.07c-.22-2-6.19-3.9-5.54-5.8s7.38-1.13,7.75-3.19-5.92-5.42-4.72-7.2,7.82,1.55,8.79-.43c.57-1.17-3-4.26-3-4.26l-21.34,4.81A5.15,5.15,0,0,0,1217.34,1936.9Z"/><rect class="cls-3" x="276.16" y="1280.4" width="80.11" height="80.11" rx="8.5" ry="8.5" transform="translate(-255.55 88.92) rotate(-11.44)"/><path class="cls-4" d="M355.72,1314.34s-5.91-2.42-6.65-.91c-1.11,2.25,6.79,6.74,5.13,8.62s-7.76-3.39-9.16-1.54c-1.1,1.47,3,6.14,1.46,7.21-1.79,1.29-7.08-4.08-8.5-2.39s3.76,7.75,1.8,8.89c-2.54,1.48-7.95-6.93-10.45-5.39-1.82,1.12.09,7.94-2,8.32s-4.45-6.58-6.53-5.87-1.42,7.77-3.58,7.92-4.36-6.87-6.6-6.38c-2.41.54-3.16,8.22-5.63,8.13s-4.42-7.46-6.91-7.23c-2,.17-4,6.1-5.92,5.41s-1-7.41-3-7.82-5.55,5.8-7.3,4.56,1.72-7.79-.24-8.79c-1.16-.6-4.32,2.92-4.32,2.92l4.34,21.44,2.26,11.18a5.16,5.16,0,0,0,6.06,4l68.44-13.84a5.16,5.16,0,0,0,4-6.06l-2.26-11.19-4.21-20.82Z"/><path class="cls-5" d="M289.94,1366.64l68.44-13.84a5.16,5.16,0,0,0,4-6.06l-4.21-20.83-.2-.38s-5.91-2.42-6.66-.92c-1.11,2.25,6.79,6.75,5.13,8.63s-7.76-3.4-9.15-1.54c-1.11,1.47,2.95,6.13,1.46,7.21-1.8,1.29-7.09-4.09-8.51-2.39s3.76,7.75,1.8,8.89c-2.54,1.47-7.95-6.94-10.45-5.4-1.82,1.13.09,8-2,8.33s-4.46-6.59-6.54-5.88-1.41,7.77-3.58,7.93-4.35-6.88-6.59-6.38c-2.42.53-3.16,8.22-5.63,8.13s-4.43-7.46-6.92-7.24c-2,.18-4,6.1-5.92,5.41s-1-7.41-3-7.82-5.54,5.81-7.3,4.57,1.72-7.79-.24-8.8c-1.16-.59-4.32,2.92-4.32,2.92l4.34,21.44A5.16,5.16,0,0,0,289.94,1366.64Z"/><rect class="cls-3" x="1515.02" y="2505.07" width="80.11" height="80.11" rx="8.5" ry="8.5" transform="translate(1976.95 -407.49) rotate(39.56)"/><path class="cls-4" d="M1584.69,2572s-1.84-6.11-3.47-5.74c-2.45.55-1,9.52-3.48,9.41-2.32-.1-2.24-8.17-4.56-8.08-1.84.06-2.91,6.15-4.69,5.67-2.13-.58-1.28-8.08-3.49-8.11s-3.66,7.8-5.78,7c-2.74-1,.39-10.54-2.38-11.51-2-.71-6.12,5.07-7.74,3.67s2.31-7.61.45-8.78-6.93,3.8-8.41,2.21,2.6-7.71.81-9.14c-1.94-1.54-8.38,2.72-9.87.74s3-8.13,1.28-9.93c-1.4-1.44-7.28.71-7.94-1.19s5.15-5.41,4.18-7.27-8-.66-8.14-2.8,7.13-3.57,6.68-5.72c-.26-1.28-5-1.52-5-1.52l-13.93,16.86-7.26,8.8a5.14,5.14,0,0,0,.69,7.24l53.83,44.47a5.16,5.16,0,0,0,7.24-.69l7.27-8.8,13.53-16.38Z"/><path class="cls-5" d="M1502.65,2553.78l53.83,44.47a5.16,5.16,0,0,0,7.24-.69l13.53-16.38.17-.4s-1.83-6.11-3.47-5.75c-2.45.56-1,9.53-3.48,9.42-2.32-.1-2.24-8.17-4.56-8.08-1.84.06-2.91,6.15-4.69,5.67-2.13-.58-1.28-8.08-3.49-8.12s-3.66,7.8-5.77,7c-2.75-1.05.38-10.54-2.39-11.51-2-.71-6.12,5.07-7.74,3.67s2.31-7.61.45-8.78-6.92,3.79-8.41,2.2,2.6-7.7.81-9.13c-1.94-1.54-8.38,2.71-9.86.74s3-8.13,1.27-9.93c-1.4-1.44-7.28.7-7.93-1.19s5.15-5.42,4.17-7.27-8-.66-8.14-2.8,7.14-3.57,6.69-5.72c-.27-1.28-5-1.52-5-1.52L1502,2546.54A5.14,5.14,0,0,0,1502.65,2553.78Z"/><rect class="cls-3" x="1501.45" y="607.48" width="51.12" height="51.12" rx="8.5" ry="8.5" transform="matrix(-0.83, -0.55, 0.55, -0.83, 2449.66, 2004.6)"/><path class="cls-4" d="M1506.42,618s1.57,3.76,2.59,3.42c1.52-.51,0-6.11,1.58-6.21s2,5,3.43,4.83c1.16-.17,1.44-4.1,2.6-3.91,1.39.22,1.35,5,2.76,4.91s1.8-5.19,3.19-4.82c1.82.48.46,6.71,2.29,7.14,1.33.32,3.54-3.62,4.66-2.84s-1,5,.3,5.6,4.14-2.87,5.19-2-1.14,5.06.1,5.85,5.13-2.28,6.21-1.13-1.37,5.36-.15,6.39c1,.82,4.58-.94,5.12.22s-2.91,3.78-2.17,4.9,5.12-.12,5.35,1.23-4.28,2.74-3.86,4.08c.26.79,3.27.63,3.27.63l7.72-11.63,4-6.07a3.29,3.29,0,0,0-.92-4.55l-37.13-24.63a3.3,3.3,0,0,0-4.55.92l-4,6.07-7.5,11.3Z"/><path class="cls-5" d="M1559.7,624.05l-37.13-24.63a3.3,3.3,0,0,0-4.55.92l-7.49,11.3-.08.27s1.57,3.75,2.58,3.41c1.52-.51,0-6.11,1.58-6.21s2,5,3.44,4.83c1.16-.17,1.43-4.1,2.59-3.91,1.39.22,1.36,5,2.76,4.91s1.8-5.19,3.2-4.82c1.81.48.46,6.71,2.28,7.15,1.33.31,3.54-3.63,4.67-2.85s-1,5,.29,5.6,4.15-2.87,5.2-2-1.14,5.07.09,5.85,5.14-2.28,6.21-1.13-1.37,5.37-.14,6.39c1,.82,4.57-.93,5.11.23s-2.91,3.78-2.16,4.89,5.12-.12,5.35,1.23-4.29,2.74-3.86,4.08c.25.79,3.27.63,3.27.63l7.71-11.63A3.29,3.29,0,0,0,1559.7,624.05Z"/><rect class="cls-3" x="209.95" y="917.78" width="49.08" height="49.08" rx="8.5" ry="8.5" transform="translate(653.8 66.46) rotate(39.56)"/><path class="cls-4" d="M252.64,958.77s-1.13-3.75-2.13-3.52c-1.5.34-.59,5.83-2.13,5.77s-1.38-5-2.8-5c-1.12,0-1.78,3.78-2.87,3.48-1.3-.36-.78-4.95-2.14-5s-2.24,4.78-3.53,4.28c-1.69-.64.23-6.45-1.47-7.05-1.23-.43-3.74,3.11-4.74,2.25s1.42-4.66.28-5.38S226.87,951,226,950s1.59-4.72.49-5.6-5.13,1.67-6,.46,1.85-5,.78-6.08c-.86-.89-4.46.43-4.86-.73s3.15-3.32,2.56-4.46-4.9-.4-5-1.71,4.37-2.19,4.1-3.51c-.17-.78-3.06-.93-3.06-.93l-8.54,10.33L202,943.18a3.17,3.17,0,0,0,.43,4.44l33,27.24a3.16,3.16,0,0,0,4.43-.42l4.45-5.39,8.29-10Z"/><path class="cls-5" d="M202.38,947.62l33,27.24a3.16,3.16,0,0,0,4.43-.42l8.29-10,.11-.24s-1.13-3.75-2.13-3.52c-1.5.34-.6,5.83-2.13,5.77s-1.38-5-2.8-5c-1.12,0-1.78,3.78-2.87,3.48-1.3-.36-.79-4.95-2.14-5s-2.24,4.78-3.54,4.28c-1.68-.64.24-6.45-1.46-7-1.24-.43-3.75,3.11-4.74,2.25s1.42-4.66.28-5.38-4.25,2.33-5.15,1.35,1.59-4.72.49-5.6-5.13,1.67-6,.46,1.84-5,.78-6.08c-.86-.89-4.46.43-4.86-.73s3.15-3.32,2.56-4.46-4.9-.4-5-1.71,4.37-2.19,4.09-3.51c-.16-.78-3-.93-3-.93L202,943.18A3.17,3.17,0,0,0,202.38,947.62Z"/><rect class="cls-6" x="1301.79" y="1138.33" width="91.36" height="91.36" rx="8.5" ry="8.5"/><path class="cls-7" d="M1393,1186.11s-6.06-4-7.23-2.53c-1.75,2.26,6.06,9.08,3.78,10.8-2.11,1.6-7.9-5.55-9.88-3.79-1.57,1.39,1.91,7.53,0,8.39-2.3,1-7-6.17-9-4.6s2.44,9.52,0,10.35c-3.18,1.07-7.32-9.55-10.46-8.39-2.29.84-1.7,8.9-4.14,8.85s-3.49-8.37-6-8-3.34,8.37-5.8,8-3.31-8.67-5.93-8.62c-2.82,0-5.39,8.47-8.13,7.81s-3.25-9.34-6.09-9.65c-2.27-.25-5.89,5.9-7.84,4.71s.59-8.5-1.61-9.42-7.51,5.23-9.19,3.44,3.68-8.31,1.72-9.88c-1.16-.93-5.49,2.29-5.49,2.29v38a5.88,5.88,0,0,0,5.86,5.86h79.64a5.88,5.88,0,0,0,5.86-5.86v-37.24Z"/><path class="cls-8" d="M1307.65,1229.69h79.64a5.88,5.88,0,0,0,5.86-5.86V1199.6l-.14-.48s-6.06-4-7.23-2.53c-1.75,2.27,6.06,9.08,3.78,10.81-2.11,1.59-7.9-5.55-9.88-3.8-1.57,1.4,1.91,7.53,0,8.39-2.3,1-7-6.17-9-4.59s2.44,9.51,0,10.34c-3.18,1.07-7.32-9.55-10.46-8.39-2.29.84-1.7,8.9-4.14,8.85s-3.49-8.37-6-8-3.34,8.37-5.8,8-3.31-8.67-5.93-8.62c-2.82.05-5.39,8.47-8.13,7.81s-3.25-9.33-6.09-9.65c-2.27-.25-5.89,5.91-7.84,4.71s.59-8.5-1.61-9.42-7.51,5.23-9.19,3.45,3.68-8.32,1.72-9.89c-1.16-.92-5.49,2.29-5.49,2.29v24.95A5.88,5.88,0,0,0,1307.65,1229.69Z"/><circle class="cls-9" cx="1322.03" cy="1164.09" r="11.97"/><circle class="cls-10" cx="1322.03" cy="1164.09" r="7.88"/><circle class="cls-9" cx="1324.6" cy="1160.57" r="4.24"/><circle class="cls-9" cx="1327.88" cy="1167.11" r="2.65"/><circle class="cls-9" cx="1372.91" cy="1163.49" r="11.97"/><circle class="cls-10" cx="1372.91" cy="1163.49" r="7.88"/><circle class="cls-9" cx="1375.49" cy="1159.97" r="4.24"/><circle class="cls-9" cx="1378.76" cy="1166.52" r="2.65"/><path class="cls-11" d="M1335.68,1172.73c.5,3.85,5.58,6.88,11.79,6.88s11.29-3,11.79-6.88"/><path class="cls-8" d="M1342.2,1141a3.56,3.56,0,0,1-.29-2.3,7.82,7.82,0,0,1,.76-2.21,10,10,0,0,1,1.32-1.91,7.51,7.51,0,0,1,1.82-1.53,4.44,4.44,0,0,1,2.47-.63,2.66,2.66,0,0,1,1.3.44,2.63,2.63,0,0,1,.5.43c.07.09.14.16.21.26s.13.23.19.34a1.7,1.7,0,0,1-.14,1.33,4.63,4.63,0,0,1-.59,1,16.82,16.82,0,0,1-1.44,1.72l-.21-.71a27.08,27.08,0,0,1,2.8.28,7.15,7.15,0,0,1,1.46.41,2.91,2.91,0,0,1,.8.52,1.62,1.62,0,0,1,.41.59,1.35,1.35,0,0,1,0,.93,1.39,1.39,0,0,1-.46.68,3.24,3.24,0,0,1-.49.33,5,5,0,0,1-.84.29,9.27,9.27,0,0,1-1.5.23,16.17,16.17,0,0,1-2.87,0l.63-2a14,14,0,0,1,2,1.47,7,7,0,0,1,.92,1,2.26,2.26,0,0,1,.38.89,1.29,1.29,0,0,1-.09.75,1.35,1.35,0,0,1-.48.54,1.67,1.67,0,0,1-.92.24,4.88,4.88,0,0,1-.7-.07,7.46,7.46,0,0,1-1.19-.35,12.34,12.34,0,0,1-2.12-1.06.1.1,0,0,1,0-.14.1.1,0,0,1,.1,0c.77.1,1.53.21,2.28.26a9.76,9.76,0,0,0,1.07,0c.31,0,.69-.13.62-.14s-.11,0-.12.12,0,.18-.06.19-.06,0-.14-.12a5.32,5.32,0,0,0-.73-.6c-.57-.38-1.2-.79-1.82-1.12a1.05,1.05,0,0,1,.56-2h.07c.84,0,1.74.08,2.57.09a9.06,9.06,0,0,0,1.2-.08l.46-.1c.09,0,.11-.08,0,.11s0,.19,0,.27.07.08,0,0a1.15,1.15,0,0,0-.31-.25,6,6,0,0,0-1.08-.55,17.7,17.7,0,0,0-2.52-.83h-.07a.39.39,0,0,1-.29-.47.41.41,0,0,1,.15-.23,7,7,0,0,0,1.48-1.45,3.46,3.46,0,0,0,.48-.88.89.89,0,0,0,0-.77l-.11-.11-.17-.13a1.2,1.2,0,0,0-.38-.18,1.38,1.38,0,0,0-.78,0,4.32,4.32,0,0,0-1.56.78,12.16,12.16,0,0,0-2.8,2.75,6.53,6.53,0,0,0-1.56,3.66h0a.11.11,0,0,1-.1.1A.11.11,0,0,1,1342.2,1141Z"/><rect class="cls-6" x="1444.56" y="1777.47" width="44.01" height="44.01" rx="8.5" ry="8.5"/><path class="cls-7" d="M1488.5,1800.48s-2.91-1.94-3.48-1.21c-.84,1.09,2.92,4.37,1.82,5.2s-3.8-2.67-4.76-1.83c-.75.67.92,3.63,0,4-1.1.5-3.37-3-4.31-2.21s1.18,4.58,0,5c-1.53.52-3.53-4.6-5-4-1.11.41-.82,4.29-2,4.26s-1.69-4-2.88-3.87-1.61,4-2.79,3.87-1.6-4.17-2.86-4.15-2.6,4.08-3.92,3.77-1.57-4.5-2.93-4.65c-1.1-.13-2.84,2.84-3.78,2.26s.29-4.09-.77-4.53-3.62,2.52-4.43,1.66,1.77-4,.83-4.76c-.56-.45-2.65,1.1-2.65,1.1v18.28a2.84,2.84,0,0,0,2.83,2.83h38.36a2.83,2.83,0,0,0,2.82-2.83v-17.94Z"/><path class="cls-8" d="M1447.39,1821.48h38.36a2.83,2.83,0,0,0,2.82-2.83V1807l-.07-.23s-2.91-1.94-3.48-1.22c-.84,1.09,2.92,4.38,1.82,5.21s-3.8-2.68-4.76-1.83c-.75.67.92,3.63,0,4-1.1.5-3.37-3-4.31-2.21s1.18,4.58,0,5c-1.53.52-3.53-4.6-5-4-1.11.41-.82,4.29-2,4.26s-1.69-4-2.88-3.87-1.61,4-2.79,3.87-1.6-4.17-2.86-4.15-2.6,4.08-3.92,3.76-1.57-4.49-2.93-4.65c-1.1-.12-2.84,2.85-3.78,2.27s.29-4.09-.77-4.54-3.62,2.52-4.43,1.66,1.77-4,.83-4.76c-.56-.44-2.65,1.11-2.65,1.11v12A2.84,2.84,0,0,0,1447.39,1821.48Z"/><circle class="cls-9" cx="1454.31" cy="1789.88" r="5.76"/><circle class="cls-10" cx="1454.31" cy="1789.88" r="3.8"/><circle class="cls-9" cx="1455.55" cy="1788.18" r="2.04"/><circle class="cls-9" cx="1457.13" cy="1791.33" r="1.28"/><circle class="cls-9" cx="1478.82" cy="1789.59" r="5.76"/><circle class="cls-10" cx="1478.82" cy="1789.59" r="3.8"/><circle class="cls-9" cx="1480.07" cy="1787.89" r="2.04"/><circle class="cls-9" cx="1481.64" cy="1791.05" r="1.28"/><path class="cls-11" d="M1460.89,1794c.24,1.85,2.69,3.31,5.68,3.31s5.44-1.46,5.68-3.31"/><path class="cls-8" d="M1464,1778.76a1.78,1.78,0,0,1-.34-1.2,3.41,3.41,0,0,1,.29-1.19,3.79,3.79,0,0,1,1.6-1.84,2.28,2.28,0,0,1,1.42-.26,2.6,2.6,0,0,1,.4.1l.36.21a2.37,2.37,0,0,1,.27.28l.12.15a2.26,2.26,0,0,1,.11.22,1.08,1.08,0,0,1-.1.79,5,5,0,0,1-.32.51c-.22.31-.44.58-.68.89l-.21-.71a13.45,13.45,0,0,1,1.42,0,2.52,2.52,0,0,1,.8.16,1.55,1.55,0,0,1,.52.32,1.51,1.51,0,0,1,.31.44,1.13,1.13,0,0,1,0,.77,1.2,1.2,0,0,1-.35.53,2.76,2.76,0,0,1-.35.24,3.27,3.27,0,0,1-.5.19,5.64,5.64,0,0,1-.81.15,6.39,6.39,0,0,1-1.45,0l.63-2a5.29,5.29,0,0,1,1,.79,4.63,4.63,0,0,1,.49.59,1.71,1.71,0,0,1,.24.63,1,1,0,0,1-.08.6,1,1,0,0,1-1,.59,2.21,2.21,0,0,1-.4-.07,2.7,2.7,0,0,1-.6-.25,4.27,4.27,0,0,1-1-.72.11.11,0,0,1,.07-.18l1.14-.08.49-.07c.11,0,.28-.15,0-.07a.59.59,0,0,0-.27.57c0,.16,0,.13,0,.14l-.31-.18-.83-.45a1.06,1.06,0,0,1-.44-1.43,1.07,1.07,0,0,1,1-.56h.08l1.16.06h.62s0,0-.07.06a.75.75,0,0,0-.17.28.7.7,0,0,0,0,.45.48.48,0,0,0,.12.17c.06,0,0,0,0-.05a3.09,3.09,0,0,0-.43-.3,6.65,6.65,0,0,0-1.14-.54l-.14,0a.36.36,0,0,1-.23-.46.38.38,0,0,1,.16-.19,2.59,2.59,0,0,0,.72-.64c.21-.22.29-.62.18-.62-.36-.17-.63.15-1,.47a10.68,10.68,0,0,0-1.25,1.14,4.07,4.07,0,0,0-1,1.54v0a.1.1,0,0,1-.13.07Z"/><rect class="cls-6" x="506.09" y="1207.85" width="46.31" height="46.31" rx="8.5" ry="8.5" transform="translate(402.65 -102.96) rotate(17.84)"/><path class="cls-7" d="M550.9,1239.09s-2.3-2.89-3.1-2.34c-1.19.82,1.52,5.32.15,5.8s-3-3.9-4.18-3.36c-1,.43-.25,3.92-1.3,4-1.27.15-2.42-4.06-3.62-3.61s-.29,5-1.6,5c-1.7,0-2-5.74-3.75-5.67-1.23,0-2.2,4-3.37,3.63s-.38-4.58-1.63-4.81-2.91,3.52-4,3-.25-4.69-1.52-5.08-3.91,3.25-5.14,2.51-.12-5-1.44-5.6c-1.05-.48-3.76,1.93-4.51,1s1.61-4,.69-4.8-4.44,1.36-5,.24,3.06-3.44,2.36-4.5c-.41-.63-3,.25-3,.25l-3.88,12-2,6.28a3,3,0,0,0,1.92,3.74l38.43,12.37a3,3,0,0,0,3.74-1.92l2-6.28,3.76-11.69Z"/><path class="cls-8" d="M502.94,1246.87l38.43,12.37a3,3,0,0,0,3.74-1.92l3.76-11.69v-.26s-2.3-2.89-3.1-2.34c-1.2.82,1.52,5.32.15,5.8s-2.95-3.91-4.18-3.36c-1,.42-.25,3.92-1.31,4-1.26.15-2.41-4.06-3.61-3.61s-.29,5-1.6,5c-1.7,0-2.05-5.74-3.75-5.67-1.23,0-2.2,4-3.37,3.63s-.38-4.58-1.63-4.81-2.91,3.52-4.05,3-.25-4.7-1.52-5.08-3.92,3.25-5.14,2.51-.12-5-1.44-5.61c-1.05-.47-3.76,1.94-4.51,1.06s1.61-4,.69-4.8-4.44,1.36-5,.24,3.07-3.44,2.37-4.5c-.42-.63-3,.25-3,.25l-3.88,12A3,3,0,0,0,502.94,1246.87Z"/><rect class="cls-6" x="1381.33" y="2374.72" width="91.09" height="91.09" rx="8.5" ry="8.5" transform="translate(-860.04 788.19) rotate(-23.96)"/><path class="cls-7" d="M1469.22,2403.74s-7.16-1.23-7.61.62c-.68,2.77,9.2,5.82,7.82,8.31-1.28,2.31-9.45-1.85-10.54.55-.87,1.9,4.79,6.08,3.39,7.64-1.67,1.88-8.87-2.78-10-.56s6.08,7.68,4.19,9.43c-2.46,2.26-10.53-5.74-12.93-3.41-1.75,1.7,2.06,8.79-.19,9.74s-6.57-6.21-8.7-4.91.35,9-2,9.67-6.53-6.55-8.89-5.45c-2.55,1.19-1.48,9.9-4.25,10.41s-6.74-7.19-9.45-6.32c-2.18.69-3,7.76-5.24,7.46s-2.9-8-5.28-7.93-4.72,7.81-7,6.86,0-9.06-2.43-9.7c-1.44-.37-4.08,4.31-4.08,4.31l10.1,22.73,5.27,11.85a5.86,5.86,0,0,0,7.72,3l72.55-32.25a5.85,5.85,0,0,0,3-7.71l-5.27-11.86-9.81-22.07Z"/><path class="cls-8" d="M1409.1,2478l72.55-32.25a5.85,5.85,0,0,0,3-7.71l-9.81-22.08-.32-.38s-7.16-1.23-7.61.63c-.68,2.77,9.2,5.81,7.82,8.31-1.28,2.31-9.45-1.86-10.54.55-.87,1.9,4.79,6.08,3.39,7.64-1.67,1.87-8.87-2.79-10-.56s6.08,7.68,4.18,9.42c-2.45,2.27-10.52-5.73-12.92-3.4-1.75,1.69,2.06,8.79-.19,9.73s-6.57-6.21-8.7-4.91.35,9-2,9.68-6.53-6.55-8.89-5.45c-2.55,1.18-1.48,9.9-4.25,10.41s-6.74-7.19-9.45-6.33c-2.18.69-3,7.77-5.24,7.47s-2.9-8-5.28-7.93-4.72,7.8-7,6.86,0-9.07-2.43-9.7c-1.44-.38-4.08,4.31-4.08,4.31l10.1,22.72A5.86,5.86,0,0,0,1409.1,2478Z"/><rect class="cls-6" x="195.49" y="2723.5" width="150.7" height="150.7" rx="8.5" ry="8.5" transform="translate(2862.55 1708.01) rotate(72.7)"/><rect class="cls-3" x="377.41" y="544.82" width="44.26" height="44.26" rx="8.5" ry="8.5" transform="translate(733.56 1174.81) rotate(-173.62)"/><circle class="cls-9" cx="410.45" cy="578.13" r="5.84"/><circle class="cls-10" cx="410.45" cy="578.13" r="4.43"/><circle class="cls-9" cx="407.55" cy="579.99" r="2.26"/><circle class="cls-9" cx="386.44" cy="575.45" r="5.84"/><circle class="cls-10" cx="386.44" cy="575.45" r="4.43"/><circle class="cls-9" cx="383.54" cy="577.3" r="2.26"/><path class="cls-4" d="M377.73,563.49s2.7,2.27,3.34,1.6c1-1-2.43-4.69-1.24-5.4s3.51,3.1,4.56,2.36c.83-.59-.52-3.73.45-4,1.16-.38,3,3.34,4.07,2.69s-.67-4.71.56-5c1.58-.34,3,5,4.58,4.61,1.15-.29,1.3-4.2,2.47-4s1.23,4.22,2.44,4.19,2.06-3.84,3.23-3.56,1.12,4.35,2.38,4.47,3.06-3.79,4.34-3.32,1.07,4.67,2.41,5c1.09.25,3.16-2.52,4-1.84s-.74,4.06.27,4.62,3.9-2.11,4.61-1.16-2.22,3.8-1.36,4.66c.51.51,2.77-.8,2.77-.8l1.34-12,.7-6.27a2.84,2.84,0,0,0-2.51-3.14l-38.34-4.29a2.85,2.85,0,0,0-3.14,2.51l-.7,6.26-1.3,11.67Z"/><path class="cls-5" d="M421.17,547.1l-38.34-4.29a2.85,2.85,0,0,0-3.14,2.51L378.39,557l0,.24s2.7,2.27,3.34,1.61c1-1-2.43-4.7-1.23-5.41s3.5,3.1,4.55,2.36c.83-.59-.52-3.73.45-4,1.16-.37,3,3.35,4.07,2.7s-.67-4.71.56-5c1.58-.35,3,5,4.58,4.6,1.15-.28,1.3-4.19,2.47-4s1.23,4.22,2.44,4.2,2.06-3.85,3.23-3.56,1.12,4.35,2.39,4.47,3.05-3.79,4.33-3.33,1.07,4.67,2.42,5c1.08.24,3.15-2.53,4-1.85s-.74,4.06.27,4.63,3.9-2.12,4.61-1.17-2.22,3.81-1.36,4.67c.51.51,2.77-.81,2.77-.81l1.34-12A2.84,2.84,0,0,0,421.17,547.1Z"/><path class="cls-5" d="M404.68,572.6c.32-2.82-2-5.39-5.13-5.74s-5.95,1.64-6.27,4.46c0,.15,0,.29,0,.43L404.61,573C404.64,572.88,404.66,572.74,404.68,572.6Z"/><rect class="cls-3" x="1374.81" y="1442.34" width="142.99" height="142.99" rx="8.5" ry="8.5" transform="translate(1394.52 -579.2) rotate(42.28)"/><circle class="cls-9" cx="1438.94" cy="1463.92" r="18.85"/><circle class="cls-10" cx="1438.94" cy="1463.92" r="14.3"/><circle class="cls-9" cx="1450.03" cy="1464.54" r="7.3"/><circle class="cls-9" cx="1496.69" cy="1516.42" r="18.85"/><circle class="cls-10" cx="1496.69" cy="1516.42" r="14.3"/><circle class="cls-9" cx="1507.78" cy="1517.05" r="7.3"/><path class="cls-5" d="M1443.55,1489.32c-6.16,6.78-5,17.85,2.55,24.74s18.7,7,24.86.19c.31-.35.59-.71.87-1.07l-27.3-24.82C1444.19,1488.67,1443.86,1489,1443.55,1489.32Z"/><rect class="cls-3" x="313.31" y="2241.31" width="109.51" height="109.51" rx="8.5" ry="8.5" transform="translate(-1061.69 462.17) rotate(-28.83)"/><circle class="cls-9" cx="330.07" cy="2289.02" r="14.44"/><circle class="cls-10" cx="330.07" cy="2289.02" r="10.95"/><circle class="cls-9" cx="333.27" cy="2281.14" r="5.59"/><circle class="cls-9" cx="382.44" cy="2260.19" r="14.44"/><circle class="cls-10" cx="382.44" cy="2260.19" r="10.95"/><circle class="cls-9" cx="385.64" cy="2252.31" r="5.59"/><path class="cls-5" d="M349.62,2292c3.39,6.15,11.7,8.07,18.56,4.29s9.69-11.83,6.3-18c-.17-.31-.36-.61-.55-.89L349.17,2291C349.31,2291.35,349.45,2291.67,349.62,2292Z"/><rect class="cls-3" x="267.28" y="2953.96" width="69.97" height="69.97" rx="8.5" ry="8.5"/><rect class="cls-3" x="1269.28" y="240.28" width="97.97" height="97.97" rx="8.5" ry="8.5" transform="matrix(0.74, 0.67, -0.67, 0.74, 530.77, -806.8)"/><rect class="cls-1" x="960.44" y="438.86" width="65.11" height="65.11" rx="8.5" ry="8.5"/><path class="cls-2" d="M1025.46,472.91s-4.32-2.88-5.16-1.8c-1.25,1.61,4.32,6.47,2.7,7.7s-5.64-4-7-2.71c-1.11,1,1.37,5.37,0,6-1.63.74-5-4.39-6.38-3.27s1.74,6.78,0,7.37c-2.27.77-5.22-6.81-7.46-6-1.63.6-1.2,6.34-2.94,6.31s-2.49-6-4.26-5.74-2.38,6-4.13,5.74-2.36-6.18-4.23-6.15-3.84,6-5.79,5.57-2.32-6.65-4.35-6.88c-1.61-.18-4.19,4.21-5.58,3.36s.42-6.06-1.15-6.71-5.35,3.72-6.55,2.45,2.62-5.93,1.23-7c-.83-.66-3.92,1.63-3.92,1.63v27.05a4.19,4.19,0,0,0,4.18,4.18h56.76a4.19,4.19,0,0,0,4.18-4.18V473.25Z"/><path class="cls-12" d="M964.62,504h56.76a4.19,4.19,0,0,0,4.18-4.18V482.53l-.1-.34s-4.32-2.89-5.16-1.81c-1.25,1.62,4.32,6.47,2.7,7.7s-5.64-3.95-7-2.7c-1.11,1,1.37,5.36,0,6-1.63.74-5-4.4-6.38-3.28s1.74,6.78,0,7.37c-2.27.77-5.22-6.8-7.46-6-1.63.61-1.2,6.35-2.94,6.31s-2.49-6-4.26-5.73-2.38,6-4.13,5.73-2.36-6.18-4.23-6.14-3.84,6-5.79,5.57-2.32-6.66-4.35-6.88c-1.61-.18-4.19,4.21-5.58,3.36s.42-6.06-1.15-6.72-5.35,3.73-6.55,2.46,2.62-5.93,1.23-7.05c-.83-.66-3.92,1.63-3.92,1.63v17.78A4.19,4.19,0,0,0,964.62,504Z"/><circle class="cls-9" cx="974.87" cy="457.22" r="8.53"/><circle class="cls-10" cx="974.87" cy="457.22" r="5.62"/><circle class="cls-9" cx="976.7" cy="454.71" r="3.02"/><circle class="cls-9" cx="979.03" cy="459.37" r="1.89"/><circle class="cls-9" cx="1011.13" cy="456.79" r="8.53"/><circle class="cls-10" cx="1011.13" cy="456.79" r="5.62"/><circle class="cls-9" cx="1012.97" cy="454.28" r="3.02"/><circle class="cls-9" cx="1015.3" cy="458.95" r="1.89"/><path class="cls-13" d="M984.6,463.38c.35,2.74,4,4.9,8.4,4.9s8-2.16,8.4-4.9"/><rect class="cls-1" x="1201" y="421.73" width="185.15" height="185.15" rx="8.5" ry="8.5" transform="translate(660.34 -725.4) rotate(41.26)"/><path class="cls-2" d="M1360.15,578.37s-3.82-14.25-7.63-13.51c-5.7,1.1-2.9,21.93-8.68,21.51-5.35-.39-4.63-19-10-19-4.25,0-7.15,14-11.21,12.78-4.88-1.49-2.41-18.75-7.51-19s-9,17.76-13.83,15.76c-6.27-2.61,1.62-24.32-4.72-26.76-4.62-1.78-14.47,11.29-18.13,8s5.87-17.41,1.65-20.24-16.26,8.28-19.58,4.51c-3.5-4,6.54-17.63,2.49-21-4.36-3.69-19.53,5.7-22.83,1s7.52-18.58,3.62-22.85c-3.12-3.42-16.87,1.13-18.24-3.3-1.44-4.62,12.27-12.15,10.14-16.5s-18.43-2.07-18.61-7,16.72-7.75,15.83-12.75c-.53-3-11.42-3.85-11.42-3.85l-33.34,38-17.39,19.83a11.91,11.91,0,0,0,1.1,16.77l121.31,106.43A11.92,11.92,0,0,0,1310,636l17.4-19.82,32.38-36.91Z"/><rect class="cls-1" x="161.77" y="1856.18" width="68.62" height="68.62" rx="8.5" ry="8.5" transform="translate(-1587.51 2547.19) rotate(-104.29)"/><path class="cls-2" d="M189.16,1857s-1.82,5.16-.5,5.73c2,.86,5.48-6.1,7.16-4.76s-2.57,6.79-.93,7.9c1.31.88,5.13-2.79,6.11-1.55,1.18,1.47-3.19,6.23-1.68,7.37s6.47-3.54,7.52-1.92c1.38,2.12-5.59,7.1-4.16,9.17,1,1.51,6.79-.41,7.2,1.37s-5.44,4.09-4.74,5.84,6.7.88,6.93,2.73-5.7,4-5.18,5.91,7.17,2.35,7.2,4.47-6.19,4.1-5.9,6.23c.24,1.7,5.39,3.19,4.89,4.83s-6.3,1.14-6.57,2.92,5.21,4.49,4.22,6-6.74-1.14-7.51.58c-.46,1,2.68,3.57,2.68,3.57l18.16-4.63,9.47-2.41a4.42,4.42,0,0,0,3.18-5.35l-14.77-58a4.43,4.43,0,0,0-5.35-3.18l-9.47,2.42-17.64,4.49Z"/><rect class="cls-1" x="1401.64" y="1010.37" width="132.5" height="132.5" rx="8.5" ry="8.5" transform="translate(1191.22 -722.62) rotate(45)"/><rect class="cls-1" x="1089.7" y="2528.06" width="66.38" height="66.38" rx="8.5" ry="8.5"/><rect class="cls-1" x="675.79" y="2972.37" width="90.11" height="90.11" rx="8.5" ry="8.5" transform="translate(2344.77 374.07) rotate(45)"/><rect class="cls-14" x="1056.31" y="995.88" width="58.21" height="58.21" rx="8.5" ry="8.5"/><path class="cls-15" d="M1114.43,1026.32s-3.86-2.57-4.61-1.61c-1.11,1.44,3.87,5.78,2.41,6.88s-5-3.53-6.29-2.41c-1,.89,1.21,4.79,0,5.34-1.47.66-4.46-3.93-5.72-2.93s1.56,6.07,0,6.59c-2,.69-4.65-6.08-6.66-5.34-1.46.54-1.08,5.67-2.63,5.64s-2.23-5.33-3.81-5.13-2.13,5.33-3.69,5.13-2.12-5.52-3.78-5.49-3.44,5.39-5.18,5-2.08-6-3.88-6.15c-1.45-.16-3.76,3.77-5,3s.38-5.42-1-6-4.79,3.34-5.86,2.2,2.34-5.3,1.1-6.3c-.74-.59-3.5,1.46-3.5,1.46v24.19a3.74,3.74,0,0,0,3.73,3.73h50.74a3.75,3.75,0,0,0,3.74-3.73v-23.73Z"/><path class="cls-16" d="M1060,1054.09h50.74a3.75,3.75,0,0,0,3.74-3.73v-15.44l-.09-.31s-3.86-2.57-4.61-1.61c-1.11,1.44,3.87,5.79,2.41,6.89s-5-3.54-6.29-2.42c-1,.89,1.21,4.8,0,5.34-1.47.67-4.46-3.93-5.72-2.92s1.56,6.06,0,6.59c-2,.68-4.66-6.09-6.66-5.35-1.46.54-1.08,5.67-2.63,5.64s-2.23-5.33-3.81-5.13-2.13,5.33-3.69,5.13-2.12-5.52-3.78-5.49-3.44,5.39-5.18,5-2.08-6-3.88-6.15c-1.45-.17-3.76,3.76-5,3s.38-5.42-1-6-4.79,3.34-5.86,2.2,2.34-5.3,1.1-6.3c-.74-.59-3.5,1.46-3.5,1.46v15.9A3.74,3.74,0,0,0,1060,1054.09Z"/><path class="cls-16" d="M1082.78,992.58a9.54,9.54,0,0,1,1.25-.35,3.66,3.66,0,0,1,.68-.06,2.1,2.1,0,0,1,.41,0l.24.08a1.2,1.2,0,0,1,.3.23,1,1,0,0,1,.16.84,1.42,1.42,0,0,1-.32.54,4.83,4.83,0,0,1-.61.51l-1.07.7a2.82,2.82,0,0,0-.39.29c-.08.05-.09.23.07-.12a.44.44,0,0,0,0-.32.53.53,0,0,0-.11-.31c-.08-.08-.1-.16-.19-.21l-.11-.06,0,0s0,0,0,0l0,0,.17,0c.6-.17,1.37-.48,2.38-.69a3.06,3.06,0,0,1,1-.06l.38.07a3.17,3.17,0,0,1,.53.25,1.94,1.94,0,0,1,.85,1.89,2,2,0,0,1-.26.69,2.33,2.33,0,0,1-.17.26c-.06.06-.11.12-.17.17a1.64,1.64,0,0,1-.31.26,3.83,3.83,0,0,1-.9.48c-1,.38-1.77.55-2.48.79a4.58,4.58,0,0,0-.75.3c-.05,0,.1,0,.34-.48a1.23,1.23,0,0,0,0-.84,1.75,1.75,0,0,0-.22-.43,1.54,1.54,0,0,0-.39-.34c-.51-.24-.51-.13-.46-.16l.34-.08c.3-.09.66-.22,1-.35a20.62,20.62,0,0,1,2.63-.76,4.77,4.77,0,0,1,1.07-.06l.4.06a3.58,3.58,0,0,1,.49.17,2.47,2.47,0,0,1,.56.37,2.52,2.52,0,0,1,.44.56,2,2,0,0,1,.24.63,1.94,1.94,0,0,1,0,.7,2.13,2.13,0,0,1-.59,1.28,2.85,2.85,0,0,1-1.22.73,13.27,13.27,0,0,1-2.83.4c-.83.06-1.65.07-2.31.14l-.41.06c-.08,0-.09.08.13-.23a1,1,0,0,0,.1-.31.84.84,0,0,0,0-.32.42.42,0,0,0-.11-.21c-.1-.13-.22-.12-.16-.08a1.74,1.74,0,0,0,.77.17,8.27,8.27,0,0,0,1.11,0c1.57-.08,3.21-.38,4.86-.62h0a.1.1,0,0,1,.11.08.1.1,0,0,1-.06.11,29.91,29.91,0,0,1-4.74,1.47,5.58,5.58,0,0,1-2.51.07c-.4-.11-.92-.56-.64-1.13a2,2,0,0,1,1.18-.58c1.63-.36,3.33-.31,4.86-.78a1.46,1.46,0,0,0,.46-.26.29.29,0,0,0,0-.36c-.11-.23-.58-.2-.94-.13a17.37,17.37,0,0,0-2.33.73c-.39.13-.79.27-1.2.37a2.06,2.06,0,0,1-1.35,0,.66.66,0,0,1-.26-.77,1.13,1.13,0,0,1,.53-.51,6,6,0,0,1,1.2-.44c.8-.21,1.62-.35,2.37-.61.36-.13.81-.34.73-.59s-.53-.27-.91-.22c-.79.1-1.58.37-2.42.47a1.69,1.69,0,0,1-.67,0,.51.51,0,0,1-.4-.61c.22-.5.66-.63,1-.83s.76-.33,1.12-.52.78-.45.63-.7a1.66,1.66,0,0,0-1.08-.23,8.24,8.24,0,0,0-1.22.08.1.1,0,0,1-.11-.09.1.1,0,0,1,.06-.11Z"/><rect class="cls-14" x="1439.02" y="2063.57" width="52.21" height="52.21" rx="8.5" ry="8.5"/><path class="cls-15" d="M1491.15,2090.87s-3.46-2.31-4.13-1.44c-1,1.29,3.46,5.19,2.16,6.17s-4.52-3.17-5.65-2.16c-.89.79,1.1,4.3,0,4.79-1.31.59-4-3.53-5.12-2.63s1.4,5.44,0,5.91c-1.81.62-4.18-5.45-6-4.79-1.31.48-1,5.09-2.36,5.06s-2-4.79-3.42-4.6-1.9,4.78-3.31,4.6-1.89-5-3.39-4.93-3.08,4.84-4.64,4.47-1.86-5.34-3.48-5.52c-1.3-.14-3.37,3.38-4.49,2.69s.35-4.86-.91-5.38-4.3,3-5.26,2,2.11-4.76,1-5.65c-.67-.53-3.14,1.31-3.14,1.31v21.69a3.36,3.36,0,0,0,3.35,3.35h45.51a3.36,3.36,0,0,0,3.35-3.35v-21.28Z"/><path class="cls-16" d="M1442.37,2115.78h45.51a3.36,3.36,0,0,0,3.35-3.35v-13.85l-.08-.27s-3.46-2.31-4.13-1.44c-1,1.29,3.46,5.18,2.16,6.17s-4.52-3.17-5.65-2.17c-.89.8,1.1,4.3,0,4.8-1.31.59-4-3.53-5.12-2.63s1.4,5.44,0,5.91c-1.81.62-4.18-5.46-6-4.79-1.31.48-1,5.08-2.36,5.05s-2-4.78-3.42-4.59-1.9,4.78-3.31,4.59-1.89-4.95-3.39-4.92-3.08,4.84-4.64,4.46-1.86-5.33-3.48-5.51c-1.3-.15-3.37,3.37-4.49,2.69s.35-4.86-.91-5.39-4.3,3-5.26,2,2.11-4.75,1-5.64c-.67-.53-3.14,1.3-3.14,1.3v14.26A3.36,3.36,0,0,0,1442.37,2115.78Z"/><path class="cls-16" d="M1462.76,2060.6a8.08,8.08,0,0,1,1.12-.34,4.05,4.05,0,0,1,.62-.07l.38,0,.23.08a1.08,1.08,0,0,1,.28.22.92.92,0,0,1,.16.81,1.2,1.2,0,0,1-.3.51,3.7,3.7,0,0,1-.56.48l-1,.64a2.88,2.88,0,0,0-.34.27c-.06,0-.05.2.12-.17a.56.56,0,0,0,0-.34.58.58,0,0,0-.12-.32,1.07,1.07,0,0,0-.2-.22l-.12-.06,0,0s-.06,0-.06,0l0,0,.14,0a21.11,21.11,0,0,1,2.13-.64,2.69,2.69,0,0,1,1-.06l.36.07a2,2,0,0,1,1.31,1.36,1.74,1.74,0,0,1,0,.73,1.83,1.83,0,0,1-.24.67,1.51,1.51,0,0,1-.18.26l-.15.17a2,2,0,0,1-.3.25,3.94,3.94,0,0,1-.84.45c-.9.35-1.61.51-2.24.72-.29.11-.6.22-.64.25s.14,0,.4-.51a1.34,1.34,0,0,0,0-.88,1.17,1.17,0,0,0-.23-.44,1.33,1.33,0,0,0-.4-.35c-.52-.25-.54-.14-.52-.17l.28-.07c.26-.07.58-.19.92-.31a18.64,18.64,0,0,1,2.39-.68,4.13,4.13,0,0,1,1-.06l.38.06a4.5,4.5,0,0,1,.48.16,3.12,3.12,0,0,1,.55.37,1.87,1.87,0,0,1,.43.55,2.22,2.22,0,0,1,.27,1.29,2.1,2.1,0,0,1-.58,1.26,2.65,2.65,0,0,1-1.16.69,11,11,0,0,1-2.58.35c-.74.06-1.48.06-2.06.12l-.34,0c-.07,0-.06.06.17-.27a1,1,0,0,0,.12-.33.72.72,0,0,0,0-.33.46.46,0,0,0-.12-.24c-.11-.15-.25-.15-.21-.12a1.24,1.24,0,0,0,.64.17,8.09,8.09,0,0,0,1,0c1.4-.05,2.88-.3,4.37-.48h0a.1.1,0,0,1,.05.19,26.15,26.15,0,0,1-4.25,1.32,5.06,5.06,0,0,1-2.26.07c-.37-.11-.84-.51-.58-1a1.78,1.78,0,0,1,1.07-.54c1.46-.32,3-.28,4.35-.7a1.11,1.11,0,0,0,.4-.23.23.23,0,0,0,0-.3c-.08-.19-.5-.17-.83-.11a17.21,17.21,0,0,0-2.08.66c-.35.12-.71.24-1.07.33a1.84,1.84,0,0,1-1.23,0,.6.6,0,0,1-.24-.72,1,1,0,0,1,.47-.46,4.2,4.2,0,0,1,1.09-.39c.72-.2,1.45-.32,2.13-.56.31-.11.71-.31.64-.51s-.46-.23-.8-.18c-.71.09-1.42.33-2.17.42a1.58,1.58,0,0,1-.61,0,.48.48,0,0,1-.37-.57c.21-.45.61-.56.93-.74s.68-.3,1-.47.69-.41.56-.61-.62-.2-1-.21a8,8,0,0,0-1.09.08.12.12,0,0,1-.11-.09.1.1,0,0,1,.06-.11Z"/><rect class="cls-14" x="114.88" y="512.77" width="157.94" height="157.94" rx="8.5" ry="8.5" transform="translate(-337.08 266.4) rotate(-40.36)"/><path class="cls-16" d="M131.59,529.48a27.06,27.06,0,0,1,2.24-2.55,11.24,11.24,0,0,1,1.33-1.12,4.81,4.81,0,0,1,.8-.47l.5-.16a1.89,1.89,0,0,1,.63,0,1.42,1.42,0,0,1,1,.87,2.38,2.38,0,0,1,.13,1.12,7.42,7.42,0,0,1-.43,1.8c-.38,1.11-.84,2.14-1.22,3.15a12.65,12.65,0,0,0-.49,1.47,1.67,1.67,0,0,0-.07.91s0,0,0,0,0,0,0,0-.08,0,0-.07a4,4,0,0,0,.91-.85c1.33-1.56,2.41-3.53,4-5.4a7.61,7.61,0,0,1,1.5-1.41,3.19,3.19,0,0,1,1.36-.56,2.53,2.53,0,0,1,1.87.44,2.44,2.44,0,0,1,.71.72,2.72,2.72,0,0,1,.36.94,2.94,2.94,0,0,1,0,.82,5.51,5.51,0,0,1-.11.67,8.88,8.88,0,0,1-.8,1.92c-1.22,2.15-2.62,3.88-3.8,5.69a14.41,14.41,0,0,0-1.43,2.56c-.16.35-.12.66-.15.46a.52.52,0,0,0-.19-.27s0,0-.07,0l-.13,0c-.09,0-.17,0-.26,0s.14-.09.4-.39a10.74,10.74,0,0,0,.87-1.11c.58-.84,1.14-1.78,1.7-2.73a51.78,51.78,0,0,1,3.78-5.85,8,8,0,0,1,1.52-1.48c.17-.12.37-.24.56-.35a7.76,7.76,0,0,1,.72-.3,4.63,4.63,0,0,1,.92-.12,3,3,0,0,1,1,.18,2.83,2.83,0,0,1,.82.45,2.55,2.55,0,0,1,.67.68,2.91,2.91,0,0,1,.53,1.87,5.29,5.29,0,0,1-.8,2.34,21.1,21.1,0,0,1-2.25,2.9c-.78.87-1.57,1.68-2.36,2.49-1.55,1.62-3.17,3.15-4.5,4.75a9.68,9.68,0,0,0-.87,1.19,3.14,3.14,0,0,0-.34.77s0-.1-.07-.07a.61.61,0,0,0,.26.16,1.26,1.26,0,0,0,.88-.06,8.05,8.05,0,0,0,2.41-1.61,29.07,29.07,0,0,0,2.24-2.32,92.15,92.15,0,0,0,7.87-10.75h0a.11.11,0,0,1,.14,0,.1.1,0,0,1,0,.13A79.2,79.2,0,0,1,148.7,542a26.59,26.59,0,0,1-2.24,2.51,9.17,9.17,0,0,1-2.75,2,2.7,2.7,0,0,1-1.73.17,2.27,2.27,0,0,1-.79-.4,1.24,1.24,0,0,1-.44-.81,3,3,0,0,1,.44-1.68,10.48,10.48,0,0,1,.94-1.41c1.37-1.79,3-3.39,4.47-5a34.46,34.46,0,0,0,4.25-5.13,3.83,3.83,0,0,0,.53-1.48,1.11,1.11,0,0,0-.76-1.11,1.52,1.52,0,0,0-1.4.34,6.89,6.89,0,0,0-1.14,1.15,51.16,51.16,0,0,0-3.57,5.64c-.58,1-1.15,1.93-1.8,2.85a13.54,13.54,0,0,1-1.07,1.33,3.15,3.15,0,0,1-1.49.95,1.44,1.44,0,0,1-1.52-.95,2.77,2.77,0,0,1,.19-1.76,14.93,14.93,0,0,1,1.68-2.94c1.26-1.85,2.7-3.58,3.82-5.5a6.51,6.51,0,0,0,.66-1.48,1.15,1.15,0,0,0-.31-1.35,1.17,1.17,0,0,0-1.38.11,7,7,0,0,0-1.22,1.09c-1.48,1.65-2.64,3.59-4.16,5.26a4.9,4.9,0,0,1-1.34,1.08A1.16,1.16,0,0,1,135,535a2.62,2.62,0,0,1,.06-1.73,13.56,13.56,0,0,1,.6-1.58c.46-1,1-2,1.39-3.05a7,7,0,0,0,.48-1.58c.09-.51,0-1.13-.55-1.24a2.16,2.16,0,0,0-1.48.47,10.67,10.67,0,0,0-1.33,1,26.29,26.29,0,0,0-2.39,2.33.1.1,0,0,1-.14,0A.11.11,0,0,1,131.59,529.48Z"/><rect class="cls-14" x="318.11" y="2410.99" width="44.21" height="44.21" rx="8.5" ry="8.5" transform="translate(-1494.75 799.5) rotate(-40.36)"/><path class="cls-16" d="M322.73,2415.62a6.93,6.93,0,0,1,.51-.86,2.66,2.66,0,0,1,.36-.4,1.18,1.18,0,0,1,.27-.2l.21-.09a.94.94,0,0,1,.34,0,.83.83,0,0,1,.61.48,1.23,1.23,0,0,1,.1.55,3.52,3.52,0,0,1-.09.64l-.24.95c0,.14-.05.25-.06.34s.11.13,0-.28a.78.78,0,0,0-.52-.48.91.91,0,0,0-.32,0,.66.66,0,0,0-.15,0h-.05l-.09,0v0s0-.05,0-.09a14.76,14.76,0,0,1,1-1.6,2.82,2.82,0,0,1,.63-.61l.29-.17a2.25,2.25,0,0,1,.54-.14,1.78,1.78,0,0,1,1.29.33,2.15,2.15,0,0,1,.49.51,2.2,2.2,0,0,1,.23.62c0,.11,0,.23,0,.33v.19a2.32,2.32,0,0,1-.06.38,4.33,4.33,0,0,1-.31.82c-.41.77-.77,1.24-1,1.73a3.14,3.14,0,0,0-.23.44.63.63,0,0,0,0-.15s0-.14,0-.25a.76.76,0,0,0-.08-.33,1.3,1.3,0,0,0-.57-.72,1.39,1.39,0,0,0-.49-.19,1.27,1.27,0,0,0-.55,0c-.58.15-.54.27-.56.25l.12-.17c.12-.18.26-.43.4-.69A16.4,16.4,0,0,1,326,2415a3.81,3.81,0,0,1,.67-.63l.32-.2a4.7,4.7,0,0,1,.45-.17,2.21,2.21,0,0,1,.64-.07,2,2,0,0,1,.66.13,2.08,2.08,0,0,1,.55.31,2,2,0,0,1,.46.49,2,2,0,0,1,.35,1.29,2.53,2.53,0,0,1-.41,1.19,9.76,9.76,0,0,1-1.52,1.68l-1.27,1.17-.19.18s0,0,0-.4a1.27,1.27,0,0,0-.13-.35,1,1,0,0,0-.24-.26.62.62,0,0,0-.29-.12c-.21,0-.34.05-.31.06s.26-.06.46-.19a6.79,6.79,0,0,0,.64-.51c.9-.76,1.74-1.71,2.66-2.62l0,0a.1.1,0,0,1,.14,0,.09.09,0,0,1,0,.11,22.57,22.57,0,0,1-2,3.19,4.24,4.24,0,0,1-1.43,1.29.67.67,0,0,1-1-.36,1.57,1.57,0,0,1,.4-1c.77-1,1.78-1.83,2.42-2.83a.88.88,0,0,0,.13-.36.18.18,0,0,0-.12-.19c-.13-.07-.39.15-.56.37a13,13,0,0,0-1,1.57c-.16.27-.33.54-.52.8a1.56,1.56,0,0,1-.8.7.55.55,0,0,1-.58-.34,1,1,0,0,1,.05-.59,4.71,4.71,0,0,1,.49-.85c.36-.52.76-1,1.07-1.52.15-.25.27-.58.14-.65s-.39.1-.58.31c-.41.45-.74,1-1.18,1.47a1.31,1.31,0,0,1-.4.32.43.43,0,0,1-.58-.17,1.45,1.45,0,0,1,.19-1c.13-.29.27-.57.39-.85s.21-.63,0-.68-.5.21-.72.39-.45.42-.66.64a.1.1,0,0,1-.14,0,.11.11,0,0,1,0-.12Z"/><rect class="cls-14" x="870.92" y="1753.96" width="117.87" height="117.87" rx="8.5" ry="8.5" transform="translate(-952.73 1033.73) rotate(-40.36)"/><path class="cls-16" d="M883.37,1766.42a18.82,18.82,0,0,1,1.63-2,8.25,8.25,0,0,1,1-.86,3.66,3.66,0,0,1,.61-.37l.4-.14a1.8,1.8,0,0,1,.52,0,1.2,1.2,0,0,1,.87.74,1.9,1.9,0,0,1,.12.91,5.68,5.68,0,0,1-.31,1.39c-.27.84-.6,1.62-.87,2.38a9.17,9.17,0,0,0-.33,1.07,1.11,1.11,0,0,0,0,.48.29.29,0,0,0-.08-.14.32.32,0,0,0-.13-.08c-.14-.06-.24,0-.18,0a3.42,3.42,0,0,0,.57-.58c.93-1.15,1.75-2.61,2.93-4.06a6.52,6.52,0,0,1,1.19-1.12,2.85,2.85,0,0,1,1.17-.47,2.28,2.28,0,0,1,1.68.39,2.45,2.45,0,0,1,.63.65,2.37,2.37,0,0,1,.32.83,2.64,2.64,0,0,1,0,.72,3.35,3.35,0,0,1-.1.56,6.22,6.22,0,0,1-.63,1.54c-.92,1.66-2,3-2.82,4.3a11,11,0,0,0-1,1.81c-.1.23,0,.39-.1.05a.76.76,0,0,0-.32-.43.29.29,0,0,0-.11-.06.55.55,0,0,0-.18-.06.93.93,0,0,0-.37,0c-.34.09-.1,0,0-.16a8.21,8.21,0,0,0,.61-.78c.42-.61.82-1.3,1.24-2a37.77,37.77,0,0,1,2.87-4.42,6.92,6.92,0,0,1,1.22-1.18,5.35,5.35,0,0,1,.47-.29,5,5,0,0,1,.62-.26,3.18,3.18,0,0,1,.82-.1,2.68,2.68,0,0,1,.86.16,2.43,2.43,0,0,1,.73.39,2.49,2.49,0,0,1,.6.61,2.63,2.63,0,0,1,.47,1.67,4.21,4.21,0,0,1-.66,1.94,15.57,15.57,0,0,1-1.74,2.23c-.59.65-1.19,1.26-1.78,1.86-1.16,1.19-2.38,2.34-3.36,3.49a7.62,7.62,0,0,0-.61.84c-.17.24-.21.51-.22.35s-.11-.26-.19-.28,0,.06.06,0a.55.55,0,0,0,.44,0,5.48,5.48,0,0,0,1.72-1.1,20.44,20.44,0,0,0,1.69-1.67,70.79,70.79,0,0,0,6-7.89h0a.1.1,0,0,1,.17.11,59.27,59.27,0,0,1-5.39,8.45,21.17,21.17,0,0,1-1.67,1.88,7.17,7.17,0,0,1-2.07,1.48,2,2,0,0,1-1.31.12,1.61,1.61,0,0,1-.6-.3,1,1,0,0,1-.35-.63,4,4,0,0,1,1-2.34,49.5,49.5,0,0,1,3.34-3.74,25.34,25.34,0,0,0,3.16-3.82,2.82,2.82,0,0,0,.39-1.09.77.77,0,0,0-.54-.78,1,1,0,0,0-1,.25,5.2,5.2,0,0,0-.84.85,36.84,36.84,0,0,0-2.66,4.2c-.43.72-.86,1.44-1.35,2.13a9.36,9.36,0,0,1-.8,1,2.35,2.35,0,0,1-1.14.73,1.11,1.11,0,0,1-1.18-.74,2.19,2.19,0,0,1,.13-1.35,10.87,10.87,0,0,1,1.27-2.2c.94-1.38,2-2.67,2.85-4.09a5,5,0,0,0,.49-1.11.75.75,0,0,0-1.2-.87,4.53,4.53,0,0,0-.9.8c-1.11,1.23-2,2.67-3.11,3.92a3.67,3.67,0,0,1-1,.82.9.9,0,0,1-1.25-.37,2,2,0,0,1,0-1.32,9.31,9.31,0,0,1,.46-1.18c.34-.77.72-1.51,1-2.27a5.78,5.78,0,0,0,.35-1.17c.07-.38,0-.82-.39-.9a1.59,1.59,0,0,0-1.08.35,7.89,7.89,0,0,0-1,.73,20.88,20.88,0,0,0-1.78,1.74.1.1,0,0,1-.14,0,.1.1,0,0,1,0-.13Z"/><rect class="cls-14" x="314.38" y="861.49" width="57.08" height="57.08" rx="8.5" ry="8.5" transform="translate(-196.32 103.29) rotate(-13.36)"/><path class="cls-16" d="M333.06,859.71a10.88,10.88,0,0,1,1.11-.62,4,4,0,0,1,.64-.22,2.3,2.3,0,0,1,.4,0l.26,0a1,1,0,0,1,.33.16.93.93,0,0,1,.35.77,1.21,1.21,0,0,1-.18.59,4,4,0,0,1-.47.63l-.86.91a3.77,3.77,0,0,0-.3.37c-.07.07,0,.24.05-.14a.55.55,0,0,0-.05-.33.54.54,0,0,0-.18-.27.91.91,0,0,0-.24-.16l-.12,0,0,0h-.05l0,0,.14-.08c.54-.29,1.2-.76,2.12-1.2a3.32,3.32,0,0,1,1-.29l.38,0a2.35,2.35,0,0,1,.57.13,2,2,0,0,1,1.05.91,1.85,1.85,0,0,1,.2.72,2.1,2.1,0,0,1-.08.73c0,.09-.07.19-.11.29l-.12.21a3.32,3.32,0,0,1-.24.32,3.71,3.71,0,0,1-.76.66c-.85.59-1.56.93-2.19,1.32a4.17,4.17,0,0,0-.64.45c-.05,0,.11,0,.23-.55a1.29,1.29,0,0,0-.16-.84,1.42,1.42,0,0,0-.32-.36,1.13,1.13,0,0,0-.46-.24c-.55-.13-.53,0-.49-.06l.3-.15c.27-.15.58-.35.91-.56a19.47,19.47,0,0,1,2.34-1.33,4.69,4.69,0,0,1,1-.3l.4,0a3,3,0,0,1,.51,0,2.18,2.18,0,0,1,.63.23,2.06,2.06,0,0,1,.56.44,1.9,1.9,0,0,1,.37.55,2,2,0,0,1,.2.67,2.11,2.11,0,0,1-.28,1.38,2.69,2.69,0,0,1-1,1,12,12,0,0,1-2.61,1c-.78.25-1.56.44-2.18.66l-.36.15c-.08,0-.07.09.07-.26a.88.88,0,0,0,0-.34,1,1,0,0,0-.08-.31.47.47,0,0,0-.16-.18c-.13-.11-.25-.07-.19,0a1.58,1.58,0,0,0,.77,0,8.14,8.14,0,0,0,1.06-.26c1.47-.42,3-1.08,4.5-1.68h0a.1.1,0,0,1,.13.06.1.1,0,0,1,0,.12,28.7,28.7,0,0,1-4.18,2.47,5.52,5.52,0,0,1-2.38.64c-.41,0-1-.33-.87-.93a1.9,1.9,0,0,1,1-.83c1.47-.71,3.1-1.05,4.45-1.84a1.47,1.47,0,0,0,.38-.36.28.28,0,0,0,0-.34c-.15-.2-.59-.06-.93.09a18.13,18.13,0,0,0-2.05,1.22c-.34.22-.69.43-1.06.63a2,2,0,0,1-1.29.32.64.64,0,0,1-.42-.68,1.15,1.15,0,0,1,.38-.61,5.22,5.22,0,0,1,1-.68c.72-.39,1.47-.71,2.13-1.13.31-.2.69-.51.56-.72s-.57-.14-.91,0c-.74.28-1.43.71-2.21,1a1.67,1.67,0,0,1-.64.14.52.52,0,0,1-.53-.5c.11-.53.5-.75.79-1s.65-.49.95-.75.64-.61.44-.81-.72,0-1.08,0a8.88,8.88,0,0,0-1.14.36.1.1,0,0,1-.13-.06.09.09,0,0,1,0-.12Z"/><rect class="cls-14" x="1563.27" y="2786.38" width="48.78" height="48.78" rx="8.5" ry="8.5" transform="translate(-606.35 442.77) rotate(-13.36)"/><path class="cls-16" d="M1579.23,2784.85a8.11,8.11,0,0,1,.94-.57,2.83,2.83,0,0,1,.56-.2,1.7,1.7,0,0,1,.35-.06l.24,0a1.13,1.13,0,0,1,.32.15.9.9,0,0,1,.33.73,1.15,1.15,0,0,1-.17.55,3.68,3.68,0,0,1-.41.57l-.72.8a3.83,3.83,0,0,0-.24.31s0,.19.1-.22a.79.79,0,0,0-.25-.64,1.06,1.06,0,0,0-.26-.17.35.35,0,0,0-.13,0l0,0h-.09l0,0,.1-.07c.43-.25,1-.66,1.79-1.05a2.77,2.77,0,0,1,.89-.27l.35,0a2.8,2.8,0,0,1,.56.12,1.94,1.94,0,0,1,1,.89,1.84,1.84,0,0,1,.12,1.4c0,.09-.07.19-.11.28a2,2,0,0,1-.11.2,3.4,3.4,0,0,1-.22.3,3.69,3.69,0,0,1-.69.61c-.76.53-1.36.82-1.88,1.16a2.83,2.83,0,0,0-.5.35s.15,0,.28-.63a1.43,1.43,0,0,0-.17-.88,1.78,1.78,0,0,0-.33-.38,1.47,1.47,0,0,0-.48-.25c-.58-.13-.59,0-.59,0l.23-.12c.22-.12.48-.29.76-.47a16,16,0,0,1,2-1.15,4.26,4.26,0,0,1,.93-.27,2.31,2.31,0,0,1,.37,0,2.92,2.92,0,0,1,.5.05,2.43,2.43,0,0,1,.6.22,2.19,2.19,0,0,1,.55.43,2.48,2.48,0,0,1,.36.53,1.79,1.79,0,0,1,.19.65,2.06,2.06,0,0,1-.27,1.34,2.67,2.67,0,0,1-.94.92,10.71,10.71,0,0,1-2.3.88c-.66.21-1.33.36-1.84.53l-.29.11c-.06,0,0,.05.13-.33a1,1,0,0,0,0-.36.7.7,0,0,0-.09-.33.56.56,0,0,0-.18-.22c-.16-.13-.3-.1-.27-.08s.33.07.59,0a8.71,8.71,0,0,0,.9-.2c1.26-.32,2.56-.86,3.89-1.32h0a.1.1,0,0,1,.13.06.09.09,0,0,1,0,.11,25.22,25.22,0,0,1-3.58,2.13,4.84,4.84,0,0,1-2,.55c-.36,0-.88-.29-.76-.83a1.68,1.68,0,0,1,.86-.72c1.26-.61,2.66-.91,3.8-1.58a1.15,1.15,0,0,0,.32-.29.21.21,0,0,0,0-.26c-.11-.16-.48,0-.76.08a13.29,13.29,0,0,0-1.75,1c-.3.18-.59.36-.91.53a1.78,1.78,0,0,1-1.12.28.57.57,0,0,1-.38-.61,1,1,0,0,1,.33-.54,5,5,0,0,1,.91-.59c.61-.33,1.25-.6,1.81-1,.27-.16.58-.43.47-.59s-.45-.1-.75,0c-.62.24-1.22.61-1.88.85a1.48,1.48,0,0,1-.56.12.46.46,0,0,1-.47-.45c.1-.47.43-.65.68-.88s.56-.42.81-.64.54-.52.38-.67-.6,0-.91,0a10,10,0,0,0-1,.3.1.1,0,0,1-.13-.05.09.09,0,0,1,0-.12Z"/><rect class="cls-14" x="1097.28" y="444.84" width="132.5" height="132.5" rx="8.5" ry="8.5" transform="translate(-20.6 972.44) rotate(-45)"/><path class="cls-15" d="M1212.39,466.54s-10.36,2.06-10,4.82c.52,4.12,15.53,3.09,15,7.2-.53,3.8-13.8,2.41-14,6.25-.18,3,9.68,5.75,8.61,8.6-1.29,3.42-13.51.85-13.91,4.48s12.27,7.24,10.61,10.6c-2.15,4.36-17.29-2.29-19.33,2.12-1.48,3.22,7.39,10.87,4.83,13.32s-12.16-5-14.38-2.12,5.16,12,2.31,14.19c-3,2.32-12.28-5.49-14.92-2.76-2.84,3,3.16,14.22-.32,16.36s-12.92-6.24-16.15-3.66c-2.59,2.08,0,12.1-3.21,12.88s-8.1-9.33-11.31-8-2.34,13.07-5.89,13-4.76-12.31-8.37-11.91c-2.14.24-3.29,8-3.29,8l25.59,25.58,13.34,13.35a8.55,8.55,0,0,0,12,0l81.66-81.67a8.53,8.53,0,0,0,0-12l-13.34-13.34L1213,466.88Z"/><path class="cls-16" d="M1169.55,598.77l81.66-81.67a8.53,8.53,0,0,0,0-12l-24.84-24.84-.64-.35s-10.35,2.07-10,4.82c.52,4.12,15.52,3.09,15,7.2-.52,3.81-13.8,2.42-14,6.25-.18,3,9.68,5.76,8.6,8.6-1.29,3.42-13.5.85-13.9,4.48s12.26,7.25,10.6,10.61c-2.15,4.36-17.29-2.29-19.33,2.12-1.48,3.22,7.39,10.87,4.84,13.32s-12.17-5-14.38-2.12,5.15,12,2.31,14.19c-3,2.31-12.29-5.49-14.92-2.76-2.84,2.94,3.16,14.21-.33,16.35s-12.91-6.24-16.14-3.65c-2.59,2.07,0,12.1-3.21,12.87s-8.11-9.33-11.32-8-2.33,13.06-5.89,13-4.75-12.31-8.37-11.9c-2.14.24-3.28,8-3.28,8l25.58,25.59A8.55,8.55,0,0,0,1169.55,598.77Z"/><circle class="cls-9" cx="1117" cy="515.7" r="17.47"/><circle class="cls-10" cx="1117" cy="515.7" r="13.25"/><circle class="cls-9" cx="1118.07" cy="505.46" r="6.77"/><circle class="cls-9" cx="1168.15" cy="464.56" r="17.47"/><circle class="cls-10" cx="1168.15" cy="464.56" r="13.25"/><circle class="cls-9" cx="1169.21" cy="454.32" r="6.77"/><path class="cls-16" d="M1140.72,512.55c6,6,16.31,5.44,23-1.27s7.27-17,1.27-23a10.88,10.88,0,0,0-1-.85l-24.17,24.18C1140.15,511.93,1140.42,512.25,1140.72,512.55Z"/><path class="cls-16" d="M1107.24,463.24a21.81,21.81,0,0,1,1.67-2.31,9.26,9.26,0,0,1,1-1.05,4.68,4.68,0,0,1,.65-.46l.42-.18a1.7,1.7,0,0,1,.56-.05,1.29,1.29,0,0,1,1,.71,2.14,2.14,0,0,1,.2,1,6.73,6.73,0,0,1-.23,1.56c-.24,1-.54,1.86-.78,2.73a11.63,11.63,0,0,0-.29,1.25,1.39,1.39,0,0,0,0,.65.15.15,0,0,0-.06-.1s0,0-.1,0-.17,0-.08-.05a3.61,3.61,0,0,0,.65-.73c1-1.38,1.74-3.11,2.92-4.81A6.17,6.17,0,0,1,1116,460a2.92,2.92,0,0,1,1.2-.61,2.34,2.34,0,0,1,1.77.27,2.23,2.23,0,0,1,.71.61,2.56,2.56,0,0,1,.41.85,2.63,2.63,0,0,1,.09.75,2.69,2.69,0,0,1-.05.6,7.19,7.19,0,0,1-.55,1.73c-.88,1.92-1.93,3.46-2.78,5.05a12.16,12.16,0,0,0-1,2.17c-.1.28,0,.49-.1.21a.7.7,0,0,0-.3-.35l-.1,0a.47.47,0,0,0-.17,0,.69.69,0,0,0-.32,0c-.29.1,0,0,.15-.26a8.7,8.7,0,0,0,.63-.95c.42-.73.82-1.55,1.22-2.38a44.57,44.57,0,0,1,2.79-5.19,7.82,7.82,0,0,1,1.22-1.39l.48-.36c.19-.11.42-.22.64-.32a3.68,3.68,0,0,1,.84-.18,2.71,2.71,0,0,1,.91.1,2.47,2.47,0,0,1,.79.35,2.39,2.39,0,0,1,.68.58,2.72,2.72,0,0,1,.63,1.69,4.64,4.64,0,0,1-.55,2.14,16.83,16.83,0,0,1-1.71,2.63c-.6.78-1.21,1.51-1.82,2.24-1.19,1.45-2.45,2.84-3.45,4.24a9.93,9.93,0,0,0-.64,1c-.16.3-.21.63-.22.54s-.1-.19-.16-.18.1.09.15.09a.87.87,0,0,0,.61-.09,6.42,6.42,0,0,0,1.86-1.45,25.1,25.1,0,0,0,1.73-2.06,78.48,78.48,0,0,0,6-9.45h0a.11.11,0,0,1,.14,0,.11.11,0,0,1,0,.13,67.24,67.24,0,0,1-5.27,10,23.37,23.37,0,0,1-1.71,2.25,7.7,7.7,0,0,1-2.17,1.84,2.24,2.24,0,0,1-1.44.26,1.91,1.91,0,0,1-.71-.29,1.08,1.08,0,0,1-.43-.65,2.54,2.54,0,0,1,.26-1.45,8.87,8.87,0,0,1,.69-1.25,55.82,55.82,0,0,1,3.4-4.5,27.86,27.86,0,0,0,3.19-4.58,3,3,0,0,0,.34-1.26.86.86,0,0,0-.68-.84,1.19,1.19,0,0,0-1.12.37,6.29,6.29,0,0,0-.88,1,42.35,42.35,0,0,0-2.59,5c-.42.84-.84,1.68-1.32,2.5a9.25,9.25,0,0,1-.81,1.19,2.68,2.68,0,0,1-1.19.91,1.24,1.24,0,0,1-1.37-.71,2.42,2.42,0,0,1,0-1.51,13,13,0,0,1,1.21-2.58c.94-1.63,2-3.18,2.83-4.85a5.75,5.75,0,0,0,.45-1.28.86.86,0,0,0-1.46-.89,5.55,5.55,0,0,0-.94,1c-1.12,1.47-2,3.17-3.13,4.67a4,4,0,0,1-1.05,1,1,1,0,0,1-1.41-.29,2.33,2.33,0,0,1-.07-1.47,11.88,11.88,0,0,1,.4-1.36c.32-.89.68-1.76,1-2.65a5.74,5.74,0,0,0,.29-1.34c0-.43-.11-.93-.53-1a1.9,1.9,0,0,0-1.19.5,8.17,8.17,0,0,0-1,.91,23,23,0,0,0-1.84,2.11.09.09,0,0,1-.14,0,.09.09,0,0,1,0-.13Z"/><rect class="cls-14" x="255.85" y="1491.09" width="125.65" height="125.65" rx="8.5" ry="8.5" transform="translate(317.59 -32.34) rotate(11.55)"/><path class="cls-15" d="M379.46,1569.28s-7-7.11-9-5.4c-3,2.57,5.67,13.9,2.12,15.6-3.28,1.57-9.12-9.66-12.27-7.83-2.5,1.44.5,10.67-2.31,11.3-3.38.77-7.73-10.24-10.82-8.66s.68,13.49-2.84,13.94c-4.58.57-7.23-14.88-11.79-14.19-3.32.51-4.73,11.53-8,10.79s-2.4-12.24-5.83-12.49-6.8,10.35-10,9.24c-3.4-1.16-2.07-12.58-5.61-13.24-3.81-.71-9.6,9.93-13.11,8.29s-1.82-13.48-5.55-14.69c-3-1-9.56,6.34-11.86,4.19s3.14-11.29.42-13.14-11.56,5-13.33,2.12,7.25-10.2,5-12.85c-1.31-1.57-8,1.57-8,1.57l-6.87,33.62L246.16,1595a8.09,8.09,0,0,0,6.29,9.52l107.3,21.93a8.09,8.09,0,0,0,9.52-6.29l3.58-17.53,6.67-32.65Z"/><path class="cls-16" d="M252.45,1604.5l107.3,21.93a8.09,8.09,0,0,0,9.52-6.29l6.67-32.64-.06-.69s-7.05-7.11-9-5.39c-3,2.56,5.67,13.9,2.12,15.59-3.29,1.57-9.13-9.65-12.28-7.83-2.49,1.45.51,10.67-2.31,11.31-3.38.76-7.73-10.24-10.81-8.67s.68,13.5-2.85,13.94c-4.57.58-7.22-14.88-11.78-14.18-3.32.5-4.73,11.52-8,10.78s-2.4-12.24-5.84-12.48-6.8,10.35-10,9.24c-3.4-1.17-2.08-12.59-5.61-13.25-3.82-.7-9.6,9.93-13.12,8.29s-1.81-13.48-5.54-14.68c-3-1-9.57,6.34-11.87,4.19s3.15-11.29.43-13.14-11.56,5-13.34,2.11,7.26-10.19,5.05-12.84c-1.31-1.57-8,1.57-8,1.57L246.16,1595A8.09,8.09,0,0,0,252.45,1604.5Z"/><circle class="cls-9" cx="290.71" cy="1519.5" r="16.57"/><circle class="cls-10" cx="290.71" cy="1519.5" r="12.56"/><circle class="cls-9" cx="299.36" cy="1515" r="6.42"/><circle class="cls-9" cx="357.91" cy="1533.24" r="16.57"/><circle class="cls-10" cx="357.91" cy="1533.24" r="12.56"/><circle class="cls-9" cx="366.56" cy="1528.73" r="6.42"/><path class="cls-16" d="M305.59,1536.63c-1.61,7.88,4.23,15.74,13,17.54s17.25-3.14,18.86-11c.09-.4.13-.8.18-1.19l-31.77-6.5C305.79,1535.85,305.68,1536.23,305.59,1536.63Z"/><path class="cls-16" d="M327.11,1484.35a20.53,20.53,0,0,1,2.71.1,8.5,8.5,0,0,1,1.37.27,4.46,4.46,0,0,1,.71.27l.37.24a2.08,2.08,0,0,1,.34.42,1.26,1.26,0,0,1-.05,1.18,2.11,2.11,0,0,1-.67.69,6.62,6.62,0,0,1-1.36.64c-.89.32-1.76.55-2.57.82a11.22,11.22,0,0,0-1.13.42,1.35,1.35,0,0,0-.49.31.19.19,0,0,0,.05-.13s0,0,0-.12-.12-.15,0-.12a3.72,3.72,0,0,0,.9.12c1.59,0,3.35-.26,5.33-.22a6.34,6.34,0,0,1,1.7.26,2.82,2.82,0,0,1,1.13.64,2.33,2.33,0,0,1,.74,1.59,2.51,2.51,0,0,1-.12.91,2.42,2.42,0,0,1-.47.8,2.88,2.88,0,0,1-.56.48,2.68,2.68,0,0,1-.52.28,6.73,6.73,0,0,1-1.68.47c-2,.31-3.75.29-5.45.45a12,12,0,0,0-2.22.34c-.27.07-.37.25-.17,0a.76.76,0,0,0,.14-.48s0-.06,0-.11a.41.41,0,0,0-.05-.18c-.07-.1-.11-.21-.21-.27-.27-.2-.05,0,.23,0a7.62,7.62,0,0,0,1.07,0c.79-.05,1.64-.16,2.51-.28a42.22,42.22,0,0,1,5.58-.5,7.59,7.59,0,0,1,1.76.24l.55.2a5.45,5.45,0,0,1,.6.35,3.34,3.34,0,0,1,.6.59,2.71,2.71,0,0,1,.41.79,2.51,2.51,0,0,1,.14.84,2.31,2.31,0,0,1-.11.87,2.68,2.68,0,0,1-1,1.43,4.46,4.46,0,0,1-2,.7,16.61,16.61,0,0,1-3,0c-.93-.07-1.83-.17-2.72-.27-1.78-.18-3.53-.46-5.16-.53a10.05,10.05,0,0,0-1.12,0c-.32,0-.6.16-.51.08s.11-.2.07-.26,0,.11,0,.14a.69.69,0,0,0,.36.41,5.88,5.88,0,0,0,2.1.71,20.43,20.43,0,0,0,2.52.29,75.12,75.12,0,0,0,10.59-.18h0a.11.11,0,0,1,.11.1.11.11,0,0,1-.09.1,63.18,63.18,0,0,1-10.63,1,21.92,21.92,0,0,1-2.68-.17,7.49,7.49,0,0,1-2.59-.76,2.14,2.14,0,0,1-1-1,1.92,1.92,0,0,1-.15-.71,1,1,0,0,1,.3-.69,2.41,2.41,0,0,1,1.29-.56,10.24,10.24,0,0,1,1.35-.11c1.79,0,3.57.19,5.34.34a26.7,26.7,0,0,0,5.28.14,3,3,0,0,0,1.18-.39.84.84,0,0,0,.3-1,1.15,1.15,0,0,0-.87-.68,5.32,5.32,0,0,0-1.27-.15,39.35,39.35,0,0,0-5.28.53c-.88.12-1.77.23-2.67.27a8.84,8.84,0,0,1-1.36,0,2.42,2.42,0,0,1-1.35-.47,1.18,1.18,0,0,1-.16-1.47,2.29,2.29,0,0,1,1.21-.76,12.39,12.39,0,0,1,2.68-.39c1.78-.11,3.57-.06,5.32-.3a5,5,0,0,0,1.24-.31c.39-.16.72-.44.68-.82s-.34-.66-.73-.79a5.36,5.36,0,0,0-1.27-.22c-1.76-.12-3.54.1-5.34,0a4,4,0,0,1-1.34-.31,1,1,0,0,1-.51-1.28,2.14,2.14,0,0,1,1.13-.83,10.1,10.1,0,0,1,1.29-.4c.87-.21,1.74-.38,2.59-.62a5.53,5.53,0,0,0,1.21-.47c.37-.19.68-.57.5-.93a1.75,1.75,0,0,0-1-.68,9.17,9.17,0,0,0-1.27-.35,23.38,23.38,0,0,0-2.63-.35.1.1,0,0,1-.1-.1.11.11,0,0,1,.1-.1Z"/><rect class="cls-14" x="1358.83" y="2406.09" width="87.32" height="87.32" rx="8.5" ry="8.5" transform="matrix(-0.54, -0.84, 0.84, -0.54, 111.73, 4960.16)"/><path class="cls-15" d="M1380.46,2412.15s-.08,7,1.74,7.11c2.72.23,4.12-9.58,6.69-8.65,2.38.86-.33,9.22,2.1,9.89,1.94.53,5-5.45,6.73-4.36,2,1.3-1.3,8.82,1,9.57s6.35-6.91,8.29-5.38c2.52,2-3.85,10.83-1.28,12.75,1.87,1.4,8-3.27,9.25-1.29s-4.89,7.15-3.34,9,8.44-1.68,9.46.45-5.22,7.17-3.82,9.24c1.51,2.24,9.6-.09,10.5,2.45s-5.79,7.47-4.57,9.91c1,1.95,7.8,1.65,7.86,3.83s-7.13,3.95-6.72,6.2,8.1,3.29,7.55,5.57-8.58,1.38-8.82,3.77c-.14,1.41,4.69,3.21,4.69,3.21l20-13,10.43-6.77a5.62,5.62,0,0,0,1.65-7.76l-41.45-63.83a5.63,5.63,0,0,0-7.76-1.65l-10.43,6.78-19.42,12.61Z"/><path class="cls-16" d="M1459.83,2457.88l-41.45-63.83a5.63,5.63,0,0,0-7.76-1.65L1391.2,2405l-.31.37s-.08,6.95,1.74,7.11c2.73.22,4.12-9.59,6.69-8.66,2.38.86-.33,9.23,2.11,9.9,1.93.53,5-5.45,6.72-4.37,2,1.3-1.3,8.82,1,9.58s6.35-6.91,8.29-5.38c2.52,2-3.85,10.83-1.28,12.75,1.87,1.39,8-3.28,9.25-1.29s-4.89,7.15-3.34,9,8.44-1.68,9.46.46-5.22,7.17-3.82,9.24c1.51,2.23,9.6-.09,10.5,2.45s-5.79,7.47-4.57,9.91c1,1.95,7.8,1.64,7.86,3.83s-7.12,3.95-6.72,6.19,8.11,3.3,7.55,5.58-8.58,1.38-8.82,3.76c-.14,1.42,4.69,3.21,4.69,3.21l20-13A5.62,5.62,0,0,0,1459.83,2457.88Z"/><circle class="cls-9" cx="1399.08" cy="2480.37" r="11.51"/><circle class="cls-10" cx="1399.08" cy="2480.37" r="8.73"/><circle class="cls-9" cx="1392.63" cy="2478.28" r="4.46"/><circle class="cls-9" cx="1373.12" cy="2440.4" r="11.51"/><circle class="cls-10" cx="1373.12" cy="2440.4" r="8.73"/><circle class="cls-9" cx="1366.67" cy="2438.31" r="4.46"/><path class="cls-16" d="M1400.3,2464.65c4.7-3.05,5.74-9.76,2.34-15s-10-7-14.66-4a6.79,6.79,0,0,0-.67.49l12.27,18.9A7.49,7.49,0,0,0,1400.3,2464.65Z"/><path class="cls-16" d="M1363.9,2479.5a14.24,14.24,0,0,1-1.34-1.35,5.54,5.54,0,0,1-.57-.81,2.13,2.13,0,0,1-.3-.83,1.42,1.42,0,0,1,0-.45,1,1,0,0,1,.3-.43,1,1,0,0,1,.42-.23,1.84,1.84,0,0,1,.77,0,5.5,5.5,0,0,1,1,.36c.61.27,1.16.57,1.69.82a7,7,0,0,0,.74.31c.18.08.43,0,.16.05a.33.33,0,0,0-.23.12.45.45,0,0,0-.14.18,1.08,1.08,0,0,0-.07.32s-.16-.2-.33-.37c-.74-.73-1.75-1.46-2.74-2.5a4.41,4.41,0,0,1-.78-1.06,2.58,2.58,0,0,1-.28-1.08,2.06,2.06,0,0,1,.57-1.45,1.86,1.86,0,0,1,.65-.49,2,2,0,0,1,.8-.19,2,2,0,0,1,.63,0,3,3,0,0,1,.47.14,6,6,0,0,1,1.16.65c1.18.87,2,1.75,2.93,2.49a7.27,7.27,0,0,0,1.15.84c.12.09.18,0-.28,0a1,1,0,0,0-.6.34,1.48,1.48,0,0,0-.2.35,1.14,1.14,0,0,0-.06.44c0,.46.1.31,0,.21a5.16,5.16,0,0,0-.47-.47c-.39-.34-.85-.7-1.33-1.07a29.25,29.25,0,0,1-3-2.58,5.7,5.7,0,0,1-.82-1.11c-.07-.13-.14-.29-.2-.43a4.91,4.91,0,0,1-.15-.58,3.07,3.07,0,0,1,0-.74,2.27,2.27,0,0,1,.25-.76,2.24,2.24,0,0,1,.43-.6,2.16,2.16,0,0,1,.63-.47,2.38,2.38,0,0,1,1.55-.23,3.51,3.51,0,0,1,1.55.77,19.31,19.31,0,0,1,2.72,3.06c.76,1,1.47,2,2.18,2.8a5.84,5.84,0,0,0,.51.5c.13.13.29.15,0,.14a1.22,1.22,0,0,0-.25.07.55.55,0,0,0-.19.14c-.05,0,0,.05,0,.08s.06.05,0-.12a3.82,3.82,0,0,0-.56-1.28c-.3-.47-.66-.93-1-1.4a56.29,56.29,0,0,0-5.07-5.33h0a.1.1,0,0,1,0-.14.11.11,0,0,1,.13,0,44.76,44.76,0,0,1,5.71,4.76,8.41,8.41,0,0,1,2.12,3.08,1.56,1.56,0,0,1,0,1,1.48,1.48,0,0,1-.29.43.77.77,0,0,1-.52.2,2.91,2.91,0,0,1-1.65-1c-1.77-1.76-3.09-3.93-4.94-5.49a2.09,2.09,0,0,0-.74-.38.53.53,0,0,0-.58.3c-.22.42.24,1,.63,1.4a27.06,27.06,0,0,0,2.83,2.34c.49.39,1,.77,1.44,1.2a3,3,0,0,1,1.09,1.62.87.87,0,0,1-.69.85,1.55,1.55,0,0,1-1-.23,8.12,8.12,0,0,1-1.5-1.14c-.93-.83-1.78-1.74-2.74-2.49a3.69,3.69,0,0,0-.75-.46c-.26-.11-.53-.13-.68.05a.58.58,0,0,0,0,.69,3.16,3.16,0,0,0,.5.73c.79.93,1.77,1.7,2.58,2.66a2.69,2.69,0,0,1,.51.83.71.71,0,0,1-.4.93,2.79,2.79,0,0,1-1.82-.6c-.54-.33-1-.68-1.57-1a4,4,0,0,0-.82-.37.55.55,0,0,0-.67.18,1.25,1.25,0,0,0,.16.81,5.62,5.62,0,0,0,.44.79,15.62,15.62,0,0,0,1.1,1.47.09.09,0,0,1,0,.14.11.11,0,0,1-.13,0Z"/><rect class="cls-14" x="320.37" y="2880.2" width="119.14" height="119.14" rx="8.5" ry="8.5" transform="translate(2162.49 571.41) rotate(44.33)"/><path class="cls-15" d="M420.5,2983.23s-2-9.29-4.43-8.95c-3.7.52-2.62,14-6.32,13.53-3.42-.44-2.32-12.38-5.76-12.55-2.74-.13-5.08,8.76-7.65,7.83-3.08-1.13-.9-12.13-4.17-12.46s-6.39,11.11-9.43,9.65c-3.94-1.89,1.88-15.57-2.11-17.36-2.9-1.3-9.69,6.76-11.92,4.49s4.37-11,1.76-12.95-10.74,4.76-12.74,2.22,4.81-11.1,2.33-13.44c-2.68-2.52-12.75,3-14.71-.12s5.47-11.68,3.11-14.56c-1.89-2.3-10.87.15-11.6-2.75s8.3-7.38,7.08-10.25-11.77-2-11.71-5.16,11-4.41,10.61-7.65c-.24-1.93-7.21-2.87-7.21-2.87l-22.73,23.27L301,2935.29a7.67,7.67,0,0,0,.13,10.81l74.28,72.57a7.67,7.67,0,0,0,10.82-.13l11.85-12.14,22.08-22.6Z"/><path class="cls-16" d="M301.17,2946.1l74.28,72.57a7.67,7.67,0,0,0,10.82-.13l22.07-22.6.31-.57s-2-9.29-4.44-8.95c-3.7.52-2.62,14-6.32,13.53-3.42-.44-2.32-12.39-5.76-12.55-2.73-.13-5.08,8.76-7.65,7.83-3.08-1.13-.9-12.13-4.17-12.46s-6.38,11.11-9.42,9.65c-3.95-1.89,1.88-15.57-2.11-17.36-2.91-1.3-9.7,6.76-11.93,4.49s4.37-11,1.76-13-10.74,4.76-12.74,2.22,4.81-11.1,2.33-13.44c-2.68-2.52-12.75,3-14.71-.12s5.47-11.68,3.12-14.56c-1.89-2.3-10.88.15-11.61-2.75s8.3-7.38,7.09-10.25-11.78-2-11.72-5.16,11-4.41,10.61-7.65c-.24-1.93-7.2-2.87-7.2-2.87L301,2935.29A7.67,7.67,0,0,0,301.17,2946.1Z"/><circle class="cls-9" cx="375.3" cy="2897.99" r="15.71"/><circle class="cls-10" cx="375.3" cy="2897.99" r="11.91"/><circle class="cls-9" cx="384.52" cy="2898.84" r="6.08"/><circle class="cls-9" cx="421.82" cy="2943.43" r="15.71"/><circle class="cls-10" cx="421.82" cy="2943.43" r="11.91"/><circle class="cls-9" cx="431.04" cy="2944.28" r="6.08"/><path class="cls-16" d="M378.38,2919.28c-5.33,5.46-4.71,14.71,1.38,20.67s15.37,6.36,20.7.9a8.71,8.71,0,0,0,.75-.86l-22-21.48C378.94,2918.75,378.65,2919,378.38,2919.28Z"/><path class="cls-16" d="M422.37,2888.65a18.59,18.59,0,0,1,2.12,1.46,6.91,6.91,0,0,1,1,.92,3.8,3.8,0,0,1,.43.58c.06.12.12.25.17.38a1.52,1.52,0,0,1,.06.53,1.22,1.22,0,0,1-.66.94,2,2,0,0,1-.9.2,6.19,6.19,0,0,1-1.42-.18c-.88-.2-1.69-.46-2.48-.66a11,11,0,0,0-1.11-.23,1,1,0,0,0-.5,0,.24.24,0,0,0,.13-.09.3.3,0,0,0,.08-.14c0-.13,0-.23,0-.17a3.21,3.21,0,0,0,.64.52c1.24.83,2.79,1.52,4.35,2.58a5.93,5.93,0,0,1,1.24,1.09,2.76,2.76,0,0,1,.58,1.13,2.28,2.28,0,0,1-.24,1.71,2.13,2.13,0,0,1-.58.68,2.48,2.48,0,0,1-1.53.51,3.13,3.13,0,0,1-.56,0,6.6,6.6,0,0,1-1.6-.49c-1.76-.78-3.16-1.7-4.59-2.44a11.08,11.08,0,0,0-1.92-.86c-.25-.08-.4,0-.08-.1a.77.77,0,0,0,.4-.35.66.66,0,0,0,0-.11.41.41,0,0,0,.05-.19.73.73,0,0,0,0-.36c-.12-.33,0-.1.18,0a7.25,7.25,0,0,0,.84.54c.65.37,1.39.71,2.13,1.06a38.71,38.71,0,0,1,4.72,2.48,7.27,7.27,0,0,1,1.3,1.11c.12.14.23.3.34.45a4.82,4.82,0,0,1,.31.6,3.57,3.57,0,0,1,.18.8,2.54,2.54,0,0,1-.08.88,2.49,2.49,0,0,1-.32.76,2.24,2.24,0,0,1-.56.66,2.64,2.64,0,0,1-1.62.63,4.3,4.3,0,0,1-2-.49,15.5,15.5,0,0,1-2.4-1.53c-.71-.54-1.38-1.08-2-1.62-1.31-1.06-2.57-2.18-3.83-3.05a8.4,8.4,0,0,0-.9-.55c-.26-.14-.54-.16-.39-.19s.25-.12.26-.2-.06.05-.05.06a.61.61,0,0,0,.06.45,5.56,5.56,0,0,0,1.27,1.64,20.24,20.24,0,0,0,1.84,1.54,71.8,71.8,0,0,0,8.51,5.33h0a.09.09,0,0,1,0,.13.09.09,0,0,1-.12,0,59,59,0,0,1-9-4.63,20,20,0,0,1-2.05-1.51,7,7,0,0,1-1.68-1.94,2.08,2.08,0,0,1-.25-1.3,1.78,1.78,0,0,1,.25-.64,1,1,0,0,1,.6-.4,3.91,3.91,0,0,1,2.45.82c1.44.91,2.75,2,4.08,3a25.66,25.66,0,0,0,4.14,2.82,2.67,2.67,0,0,0,1.14.29.78.78,0,0,0,.73-.61,1.08,1.08,0,0,0-.34-1,5.49,5.49,0,0,0-.94-.78,37.66,37.66,0,0,0-4.48-2.28c-.76-.36-1.52-.73-2.27-1.15a10.54,10.54,0,0,1-1.07-.72,2.35,2.35,0,0,1-.84-1.08,1.12,1.12,0,0,1,.64-1.25,2.11,2.11,0,0,1,1.36,0,11.25,11.25,0,0,1,2.34,1.06c1.48.83,2.88,1.79,4.39,2.49a4.88,4.88,0,0,0,1.15.39c.39.07.79,0,.95-.3a.84.84,0,0,0-.18-1,4.41,4.41,0,0,0-.89-.83c-1.34-1-2.88-1.74-4.24-2.77a3.55,3.55,0,0,1-.91-.94.9.9,0,0,1,.25-1.28,2,2,0,0,1,1.33-.09,12.41,12.41,0,0,1,1.23.35c.8.27,1.59.59,2.39.83a4.58,4.58,0,0,0,1.2.25c.39,0,.83-.11.87-.48a1.59,1.59,0,0,0-.45-1.05,8.11,8.11,0,0,0-.83-.93,18.58,18.58,0,0,0-1.92-1.63.11.11,0,0,1,0-.14.11.11,0,0,1,.13,0Z"/><rect class="cls-6" x="957.34" y="1661.71" width="166.19" height="166.19" rx="8.5" ry="8.5" transform="translate(819.88 -274.65) rotate(24.58)"/><rect class="cls-6" x="212.49" y="378.77" width="175.13" height="175.13" rx="8.5" ry="8.5"/><path class="cls-7" d="M387.35,470.36s-11.61-7.75-13.86-4.85c-3.36,4.34,11.63,17.4,7.25,20.71-4,3.06-15.15-10.64-18.94-7.27-3,2.67,3.66,14.43,0,16.08-4.4,2-13.42-11.83-17.19-8.81s4.7,18.23,0,19.82c-6.08,2.07-14-18.3-20-16.08-4.39,1.62-3.25,17.06-7.93,17s-6.7-16.05-11.46-15.42-6.4,16-11.11,15.42c-5-.65-6.35-16.62-11.36-16.53-5.4.1-10.33,16.24-15.59,15s-6.24-17.9-11.67-18.5c-4.36-.48-11.3,11.32-15,9-3.91-2.39,1.14-16.29-3.09-18.06s-14.39,10-17.62,6.61,7.06-15.95,3.3-18.95c-2.22-1.78-10.52,4.39-10.52,4.39v72.76a11.28,11.28,0,0,0,11.24,11.24H376.38a11.28,11.28,0,0,0,11.24-11.24V471.27Z"/><path class="cls-8" d="M223.73,553.9H376.38a11.28,11.28,0,0,0,11.24-11.24V496.22l-.27-.92s-11.61-7.74-13.86-4.84c-3.36,4.33,11.63,17.39,7.25,20.7-4,3.06-15.15-10.64-18.94-7.27-3,2.67,3.66,14.43,0,16.09-4.4,2-13.42-11.83-17.19-8.82s4.7,18.24,0,19.83c-6.08,2.06-14-18.3-20-16.08-4.39,1.62-3.25,17.06-7.93,17s-6.7-16-11.46-15.42-6.4,16-11.11,15.42c-5-.65-6.35-16.61-11.36-16.52-5.4.1-10.33,16.24-15.59,15s-6.24-17.9-11.67-18.51c-4.36-.48-11.3,11.33-15,9-3.91-2.4,1.14-16.3-3.09-18.07s-14.39,10-17.62,6.61,7.06-15.94,3.3-18.94c-2.22-1.78-10.52,4.38-10.52,4.38v47.82A11.28,11.28,0,0,0,223.73,553.9Z"/><circle class="cls-9" cx="251.28" cy="428.15" r="22.94"/><circle class="cls-10" cx="251.28" cy="428.15" r="15.11"/><circle class="cls-9" cx="256.22" cy="421.4" r="8.13"/><circle class="cls-9" cx="262.49" cy="433.94" r="5.09"/><circle class="cls-9" cx="348.83" cy="427" r="22.94"/><circle class="cls-10" cx="348.83" cy="427" r="15.11"/><circle class="cls-9" cx="353.77" cy="420.26" r="8.13"/><circle class="cls-9" cx="360.04" cy="432.8" r="5.09"/><path class="cls-11" d="M277.46,444.71c1,7.38,10.69,13.18,22.59,13.18s21.65-5.8,22.6-13.18"/><path class="cls-8" d="M290,383.81a7.11,7.11,0,0,1-.19-4.26,15.34,15.34,0,0,1,1.59-4,18.75,18.75,0,0,1,2.53-3.48,14.74,14.74,0,0,1,3.33-2.8,8.13,8.13,0,0,1,4.32-1.27,4.41,4.41,0,0,1,2.26.64,2.93,2.93,0,0,1,.48.33,2.59,2.59,0,0,1,.42.39c.13.14.27.27.39.42l.32.56a3,3,0,0,1-.2,2.29,9.19,9.19,0,0,1-1.09,1.85,27,27,0,0,1-2.78,3.17l-.21-.71a44.8,44.8,0,0,1,5.24.79,13.41,13.41,0,0,1,2.63.85,4.91,4.91,0,0,1,1.31.86,2.24,2.24,0,0,1,.58.86,1.85,1.85,0,0,1,0,1.25,2.59,2.59,0,0,1-1.41,1.39,7.31,7.31,0,0,1-1.44.47,16.51,16.51,0,0,1-2.74.37,33.07,33.07,0,0,1-5.36-.11l.63-2a28.16,28.16,0,0,1,3.71,2.65,10.58,10.58,0,0,1,1.67,1.73,3.41,3.41,0,0,1,.63,1.34,1.75,1.75,0,0,1-.1,1,1.69,1.69,0,0,1-.66.75,2.73,2.73,0,0,1-1.42.38,6.87,6.87,0,0,1-1.22-.09,15.62,15.62,0,0,1-2.22-.52,27.1,27.1,0,0,1-4.14-1.66.11.11,0,0,1-.05-.14.11.11,0,0,1,.12-.05c1.43.35,2.86.65,4.29.88a15.35,15.35,0,0,0,2.11.2,3.15,3.15,0,0,0,1.65-.29c.06,0,.05-.07.05-.08s0,0,0-.05a2,2,0,0,0-.39-.6,10.26,10.26,0,0,0-1.49-1.33,34.87,34.87,0,0,0-3.56-2.3,1.06,1.06,0,0,1-.41-1.44,1.05,1.05,0,0,1,1-.54h0c1.67.13,3.4.18,5.07.16a16.05,16.05,0,0,0,2.44-.21,5,5,0,0,0,1.05-.29,1.57,1.57,0,0,0,.35-.19c.1-.06.1-.1.13-.11s0,0,0,0a.6.6,0,0,0-.14-.22,3.18,3.18,0,0,0-.83-.6,13.54,13.54,0,0,0-2.25-1,34.5,34.5,0,0,0-5-1.33h0a.39.39,0,0,1-.31-.47.37.37,0,0,1,.14-.24,15.87,15.87,0,0,0,2.82-2.91,7.07,7.07,0,0,0,1-1.73,2.23,2.23,0,0,0,.07-1.73,3.33,3.33,0,0,1-.24-.32l-.36-.3a2.12,2.12,0,0,0-.38-.26,1.87,1.87,0,0,0-.4-.2,3.21,3.21,0,0,0-1.73-.25,7.73,7.73,0,0,0-3.41,1.43,20.79,20.79,0,0,0-5.52,5.58,16.66,16.66,0,0,0-1.89,3.5,8,8,0,0,0-.6,3.91.1.1,0,0,1-.08.11A.1.1,0,0,1,290,383.81Z"/><rect class="cls-6" x="1347.81" y="2943.39" width="131.59" height="131.59" rx="8.5" ry="8.5" transform="translate(1749.04 -298.53) rotate(30.95)"/><path class="cls-7" d="M1468.3,3045.51s-4.49-9.48-7.06-8.48c-3.84,1.5.77,15.71-3.33,16.15-3.79.41-5.65-12.71-9.4-12-3,.56-3.21,10.72-6.21,10.37-3.61-.42-4.07-12.81-7.67-12.32s-4,13.56-7.66,12.77c-4.72-1-2-17.21-6.7-18.11-3.46-.65-8.69,9.74-11.67,7.87s1.89-12.92-1.42-14.36-10.32,7.86-13.12,5.64c-3-2.34,2.33-13.16-.93-15-3.52-2-12.94,6.47-15.84,3.63s2.9-13.95-.37-16.44c-2.62-2-11.65,2.94-13.18,0s7-10.06,5-12.84-13.15.9-13.91-2.55,10.71-7.54,9.45-10.93c-.75-2-8.48-1.24-8.48-1.24l-18.48,30.81-9.64,16.08a8.47,8.47,0,0,0,2.9,11.58l98.36,59a8.48,8.48,0,0,0,11.59-2.9l9.64-16.08,17.95-29.92Z"/><path class="cls-8" d="M1330.58,3036.11l98.36,59a8.48,8.48,0,0,0,11.59-2.9l18-29.93.18-.69s-4.49-9.48-7.06-8.48c-3.84,1.49.77,15.7-3.33,16.14-3.79.41-5.65-12.71-9.4-12-3,.56-3.21,10.71-6.21,10.36-3.61-.42-4.07-12.8-7.67-12.32s-4,13.57-7.66,12.78c-4.72-1-2-17.22-6.7-18.11-3.46-.66-8.69,9.73-11.67,7.86s1.89-12.92-1.42-14.36-10.32,7.86-13.12,5.64c-3-2.34,2.33-13.15-.93-15-3.52-2-12.94,6.47-15.84,3.62s2.9-13.94-.37-16.43c-2.62-2-11.65,2.93-13.18,0s7-10.06,5-12.83-13.15.9-13.91-2.55,10.71-7.55,9.45-10.93c-.75-2-8.48-1.25-8.48-1.25l-18.48,30.82A8.47,8.47,0,0,0,1330.58,3036.11Z"/><circle class="cls-9" cx="1396.93" cy="2965.73" r="17.23"/><circle class="cls-10" cx="1396.93" cy="2965.73" r="11.35"/><circle class="cls-9" cx="1402.72" cy="2963.29" r="6.11"/><circle class="cls-9" cx="1401.92" cy="2973.8" r="3.82"/><circle class="cls-9" cx="1460.23" cy="3002.69" r="17.23"/><circle class="cls-10" cx="1460.23" cy="3002.69" r="11.35"/><circle class="cls-9" cx="1466.02" cy="3000.25" r="6.11"/><circle class="cls-9" cx="1465.21" cy="3010.76" r="3.82"/><path class="cls-11" d="M1407.4,2986.52c-2.24,5.12,1.8,12.62,9.47,17.22s16.18,4.63,19.65.24"/><path class="cls-8" d="M1439,2952.13a5.23,5.23,0,0,1,1.46-2.9,11.27,11.27,0,0,1,2.57-2,14,14,0,0,1,3-1.3,10.93,10.93,0,0,1,3.28-.53,6.14,6.14,0,0,1,3.36.92,3.48,3.48,0,0,1,1.24,1.37,3,3,0,0,1,.3.85c0,.14.06.28.08.43s0,.35,0,.52a2.36,2.36,0,0,1-1.07,1.45,7.08,7.08,0,0,1-1.43.77,21.49,21.49,0,0,1-3,1l.18-.72a35.47,35.47,0,0,1,3.14,2.5,10.22,10.22,0,0,1,1.41,1.57,3.72,3.72,0,0,1,.55,1.13,1.86,1.86,0,0,1,0,.87,1.6,1.6,0,0,1-.55.93,2.17,2.17,0,0,1-1.62.41,5.38,5.38,0,0,1-1.16-.25,13.29,13.29,0,0,1-2-.83,23.14,23.14,0,0,1-3.45-2.15l1.56-1.37a21,21,0,0,1,1.36,3.19,9.56,9.56,0,0,1,.4,1.82,2.76,2.76,0,0,1-.15,1.21,1.4,1.4,0,0,1-.19.36,2.73,2.73,0,0,1-.34.34,1.44,1.44,0,0,1-.82.26,2.24,2.24,0,0,1-1.15-.34,5.84,5.84,0,0,1-.77-.55,11,11,0,0,1-1.22-1.24,19.38,19.38,0,0,1-2-2.75.11.11,0,0,1,0-.14.11.11,0,0,1,.12,0c.82.74,1.65,1.48,2.5,2.14a15.17,15.17,0,0,0,1.29.91,2.12,2.12,0,0,0,1.07.39s0,0,0,0-.07.07-.08,0a2.71,2.71,0,0,0,0-.43,7,7,0,0,0-.45-1.37,25.57,25.57,0,0,0-1.41-2.82,1.06,1.06,0,0,1,.38-1.44,1,1,0,0,1,1.15.05l0,0c1,.72,2.11,1.41,3.17,2a11,11,0,0,0,1.61.8,3.57,3.57,0,0,0,.74.22c.22.05.33,0,.25.05a.17.17,0,0,0-.06.11s0,0,0-.1a2.31,2.31,0,0,0-.27-.65,11,11,0,0,0-1-1.49,24.87,24.87,0,0,0-2.62-2.82l0,0a.4.4,0,0,1,0-.56.37.37,0,0,1,.24-.12,11.48,11.48,0,0,0,2.93-.75,5,5,0,0,0,1.28-.74,1.59,1.59,0,0,0,.67-1c0-.1,0-.18,0-.27a1.92,1.92,0,0,0-.11-.31,2,2,0,0,0-.33-.57,2.26,2.26,0,0,0-1-.76,6.12,6.12,0,0,0-2.66-.32,16.43,16.43,0,0,0-5.64,1.41c-1.76.82-3.58,1.83-4.52,3.65h0a.1.1,0,0,1-.14,0A.09.09,0,0,1,1439,2952.13Z"/></svg>